<?xml version="1.0" encoding="UTF-8"?>
<svg version="1.1" xmlns="http://www.w3.org/2000/svg" width="2362" height="2362">
<path d="M0 0 C779.46 0 1558.92 0 2362 0 C2362 779.46 2362 1558.92 2362 2362 C1582.54 2362 803.08 2362 0 2362 C0 1582.54 0 803.08 0 0 Z " fill="#FEFEFE" transform="translate(0,0)"/>
<path d="M0 0 C1.49028149 -0.01128339 1.49028149 -0.01128339 3.01066968 -0.02279472 C6.36111555 -0.0407722 9.70987932 -0.01573646 13.06026363 0.00888824 C15.47826136 0.00484175 17.89625589 -0.00183438 20.31423992 -0.01092291 C25.58282071 -0.02464471 30.85089443 -0.01963773 36.11941433 0.00172424 C43.95491592 0.03340603 51.79014247 0.0307709 59.62568873 0.02113967 C72.81290566 0.00594668 85.99995524 0.01901341 99.18714237 0.04836273 C112.26484705 0.07743282 125.34247848 0.09493588 138.42021656 0.09673309 C139.23375397 0.09685528 140.04729138 0.09697747 140.88548144 0.09710336 C144.18812909 0.09756242 147.49077673 0.09793676 150.7934244 0.09819964 C180.91667523 0.10062417 211.03982388 0.13203891 241.16303158 0.1813736 C269.55399015 0.22786075 297.94488678 0.25629292 326.33588314 0.26340485 C327.64524752 0.26373939 327.64524752 0.26373939 328.9810637 0.2640807 C332.50052586 0.26497846 336.01998803 0.26586243 339.5394502 0.26674555 C341.29365288 0.26718633 343.04785555 0.26762891 344.80205823 0.26807331 C346.55215222 0.26851603 348.30224621 0.26895358 350.0523402 0.26938592 C378.00988657 0.27643787 405.9674214 0.29936954 433.9249561 0.32499859 C442.09536627 0.33241536 450.26577567 0.33895025 458.43618798 0.34349632 C475.6269559 0.35315306 492.81768675 0.36751303 510.00842918 0.39979166 C517.11454812 0.41299455 524.22063776 0.42337297 531.32676983 0.42471313 C537.85204004 0.42594858 544.37724444 0.43730258 550.90249025 0.45535213 C553.24400313 0.46030049 555.58552579 0.46206353 557.92704303 0.46003455 C582.02651935 0.44320782 605.87842332 2.02127174 629.71527767 5.61081696 C632.71077455 6.06005533 635.70882607 6.4878136 638.70770931 6.91379547 C650.9720554 8.6981665 662.95225871 11.11732466 674.96309566 14.16815948 C677.95032411 14.92059541 680.94618134 15.63427091 683.94376278 16.34415436 C689.88102224 17.76610739 695.59400178 19.49170092 701.29559994 21.68527985 C704.96572285 23.00089269 708.6870242 24.0545139 712.43622494 25.1188736 C722.94334902 28.13400225 733.44143002 31.55308424 743.10028744 36.73215485 C748.28373257 39.17308628 753.83477316 40.88853057 759.24872494 42.7438736 C759.24872494 43.4038736 759.24872494 44.0638736 759.24872494 44.7438736 C759.78884212 44.86117828 760.32895931 44.97848297 760.88544369 45.09934235 C769.44186131 47.43291079 777.20743068 51.65687854 784.71747494 56.25559235 C785.59403744 56.78797516 786.47059994 57.32035797 787.37372494 57.8688736 C788.18067806 58.36645172 788.98763119 58.86402985 789.81903744 59.3766861 C792.2022744 60.79496879 792.2022744 60.79496879 794.73700619 61.70090485 C798.5284032 63.27524855 801.56378214 65.75241368 804.84638119 68.18527985 C807.07267428 69.62965537 808.65996901 70.30743206 811.24872494 70.7438736 C811.24872494 71.4038736 811.24872494 72.0638736 811.24872494 72.7438736 C811.97059994 73.0119986 812.69247494 73.2801236 813.43622494 73.5563736 C816.24638877 74.74288721 818.7328905 76.01872998 821.24872494 77.7438736 C821.24872494 78.4038736 821.24872494 79.0638736 821.24872494 79.7438736 C821.92934994 79.9501236 822.60997494 80.1563736 823.31122494 80.3688736 C826.61509454 81.91536575 828.79088172 83.87751109 831.48309994 86.29465485 C833.8545366 88.24112166 836.50175402 89.40091004 839.24872494 90.7438736 C840.59340517 92.06576264 841.92501819 93.40098269 843.24872494 94.7438736 C845.003317 96.22170765 846.77532077 97.67903572 848.56122494 99.1188736 C852.84857401 102.59879088 857.07979589 106.12374121 861.24872494 109.7438736 C861.9409515 110.3316861 862.63317806 110.9194986 863.34638119 111.5251236 C864.05665462 112.1335611 864.76692806 112.7419986 865.49872494 113.3688736 C866.14325619 113.91801422 866.78778744 114.46715485 867.45184994 115.0329361 C869.32378353 116.81534243 870.82341024 118.58830508 872.24872494 120.7438736 C872.24872494 121.4038736 872.24872494 122.0638736 872.24872494 122.7438736 C872.97059994 122.9707486 873.69247494 123.1976236 874.43622494 123.4313736 C877.81090775 125.00622557 879.72902507 127.02525006 882.24872494 129.7438736 C883.14591244 130.5791861 883.14591244 130.5791861 884.06122494 131.4313736 C885.24872494 132.7438736 885.24872494 132.7438736 885.24872494 134.7438736 C885.90872494 134.7438736 886.56872494 134.7438736 887.24872494 134.7438736 C889.19403744 136.8610611 889.19403744 136.8610611 891.37372494 139.6188736 C892.09817806 140.52379547 892.82263119 141.42871735 893.56903744 142.3610611 C895.24872494 144.7438736 895.24872494 144.7438736 895.24872494 146.7438736 C895.81075619 146.95141266 896.37278744 147.15895172 896.95184994 147.37277985 C900.0605653 149.22849259 901.88935191 151.81260977 903.99872494 154.6813736 C904.43048031 155.25750397 904.86223568 155.83363434 905.30707455 156.42722321 C906.1941733 157.61431492 907.07755131 158.80419601 907.95722103 159.99680328 C909.17396237 161.6427392 910.40806941 163.27579696 911.64325619 164.9079361 C917.59472633 172.86467635 917.59472633 172.86467635 918.24872494 176.7438736 C918.90872494 176.7438736 919.56872494 176.7438736 920.24872494 176.7438736 C921.72919369 178.76340485 921.72919369 178.76340485 923.43622494 181.5563736 C924.36434994 183.05684235 924.36434994 183.05684235 925.31122494 184.5876236 C926.27028744 186.14996735 926.27028744 186.14996735 927.24872494 187.7438736 C928.47397496 189.6838528 929.70298548 191.62146342 930.93622494 193.5563736 C931.50856869 194.46129547 932.08091244 195.36621735 932.67059994 196.2985611 C933.96281111 198.3008487 935.30269686 200.24248565 936.68622494 202.1813736 C938.24872494 204.7438736 938.24872494 204.7438736 938.24872494 208.7438736 C938.90872494 208.7438736 939.56872494 208.7438736 940.24872494 208.7438736 C943.54877814 214.64979405 946.67285563 220.488191 949.24872494 226.7438736 C950.08403744 228.3216861 950.08403744 228.3216861 950.93622494 229.9313736 C952.24872494 232.7438736 952.24872494 232.7438736 952.24872494 236.7438736 C952.90872494 236.7438736 953.56872494 236.7438736 954.24872494 236.7438736 C959.34130255 247.82680846 963.58435962 259.05604272 967.50702572 270.60129547 C968.40418739 273.1929646 969.38474152 275.74852091 970.37372494 278.3063736 C974.14259049 288.5732832 976.7790531 299.48294947 978.72919369 310.2360611 C979.1219028 312.13169458 979.59772051 314.01036431 980.11200619 315.8766861 C982.56463617 324.79706233 984.10586763 333.70364728 985.37372494 342.8688736 C985.53211849 344.00429596 985.69051205 345.13971832 985.85370541 346.30954742 C986.35921252 350.11676391 986.81282153 353.92824321 987.24872494 357.7438736 C987.33839535 358.49460144 987.42806576 359.24532928 987.52045345 360.01880646 C989.39068101 376.03821538 989.56089154 392.01509901 989.50946712 408.11862946 C989.49812776 411.69690796 989.50482439 415.27488706 989.51634216 418.85315514 C989.58058816 442.37527591 989.12334199 465.78769964 984.23700619 488.88059235 C983.43685616 492.68636685 982.82977597 496.48137028 982.30536556 500.33347321 C980.95744591 510.10481747 978.69973642 519.62226842 976.31122494 529.1813736 C976.14191463 529.86374084 975.97260433 530.54610809 975.79816341 531.24915314 C973.20744258 541.63878201 970.2338429 551.79790242 966.24872494 561.7438736 C965.79497966 563.28083735 965.35766298 564.82273895 964.93622494 566.3688736 C963.53265618 571.14667837 961.61878629 575.53020917 959.49872494 580.02902985 C958.33670198 582.55279845 957.30692521 585.08840415 956.31122494 587.6813736 C954.3703679 592.65283118 951.98311238 597.34978326 949.51825619 602.0798111 C948.44085588 604.3406942 947.72935005 606.30021337 947.24872494 608.7438736 C946.58872494 608.7438736 945.92872494 608.7438736 945.24872494 608.7438736 C944.98059994 609.6307486 944.71247494 610.5176236 944.43622494 611.4313736 C943.32398129 614.53394798 941.96718264 616.95137984 940.24872494 619.7438736 C939.80593197 620.89822906 939.80593197 620.89822906 939.35419369 622.07590485 C938.17731232 624.91622278 936.73997782 627.29504195 935.06122494 629.8688736 C934.11956478 631.3210025 934.11956478 631.3210025 933.15888119 632.80246735 C932.52852962 633.77313141 931.89817806 634.74379547 931.24872494 635.7438736 C930.16469444 637.47260329 929.08135847 639.2017687 927.99872494 640.9313736 C924.8833744 645.81374528 921.68154369 650.63475019 918.43622494 655.4313736 C917.71547787 656.51164825 917.71547787 656.51164825 916.98017025 657.61374664 C915.78846134 659.36050095 914.52455269 661.05758053 913.24872494 662.7438736 C912.58872494 662.7438736 911.92872494 662.7438736 911.24872494 662.7438736 C911.02184994 663.4657486 910.79497494 664.1876236 910.56122494 664.9313736 C908.97699877 668.32614395 906.91733738 670.1089463 904.24872494 672.7438736 C902.24749098 674.97844145 900.31162261 677.26683626 898.37372494 679.5563736 C897.30874713 680.80387731 896.24364376 682.05127384 895.17841244 683.2985611 C893.51055342 685.25694355 891.84886953 687.21974715 890.19403744 689.1891861 C886.78731806 693.19247384 883.19085472 696.67564261 879.17450619 700.06809235 C877.30611181 701.69393654 875.59053063 703.39773362 873.87372494 705.1813736 C871.24872494 707.7438736 871.24872494 707.7438736 869.24872494 707.7438736 C869.24872494 708.4038736 869.24872494 709.0638736 869.24872494 709.7438736 C867.65888119 711.23215485 867.65888119 711.23215485 865.31122494 713.0563736 C864.405014 713.76277985 863.49880306 714.4691861 862.56513119 715.1969986 C861.45980451 716.0461419 860.35432199 716.89508236 859.24872494 717.7438736 C857.88277365 718.80108016 856.51689246 719.8583773 855.15106869 720.9157486 C853.68413719 722.04662713 852.21668762 723.17683394 850.74872494 724.3063736 C850.06173519 724.83593658 849.37474545 725.36549957 848.66693783 725.91110992 C839.84483426 732.65876805 830.73840314 738.78853372 821.24872494 744.5563736 C819.39300444 745.68533387 817.5387608 746.81672641 815.68622494 747.95090485 C814.88056087 748.4405069 814.07489681 748.93010895 813.24481869 749.43454742 C811.13588715 750.72109422 811.13588715 750.72109422 809.24872494 752.7438736 C807.5345481 753.46910226 805.81936378 754.19216491 804.09638119 754.89621735 C802.01036817 755.7890217 802.01036817 755.7890217 799.43622494 757.6813736 C795.95900567 759.93133901 792.53164121 761.27852199 788.67841244 762.74777985 C786.05395638 763.82372244 783.70962877 765.21513724 781.28388119 766.67746735 C777.58463784 768.61584246 773.64015594 769.96240514 769.72528744 771.4001236 C767.06135249 772.42977935 764.48200845 773.51672265 761.88153744 774.6891861 C728.35064255 789.7438736 728.35064255 789.7438736 715.24872494 789.7438736 C715.24872494 790.7338736 715.24872494 791.7238736 715.24872494 792.7438736 C715.90872494 792.7438736 716.56872494 792.7438736 717.24872494 792.7438736 C719.59656005 795.57186178 721.79814268 798.47227775 723.99677181 801.4157486 C726.79828741 805.09489357 729.53120951 807.93563399 733.24872494 810.7438736 C734.36768364 811.91929351 735.45305639 813.12780234 736.49872494 814.3688736 C739.20599047 817.53519719 741.95389839 820.65435446 744.74872494 823.7438736 C748.01576829 827.36411083 751.2439327 831.01370925 754.44403744 834.69309235 C756.47830635 837.00476156 758.55094803 839.2791879 760.62372494 841.5563736 C763.82524927 845.09547362 766.88018557 848.71490465 769.87372494 852.4313736 C772.37845724 855.52978813 774.88263604 858.47684307 777.74872494 861.2438736 C780.49349301 863.89507003 782.87111949 866.69605929 785.24872494 869.6813736 C789.81129287 875.35714539 794.73750561 880.6361473 799.75653744 885.90964508 C802.93071294 889.24900212 806.07322265 892.61253288 809.14716244 896.04465485 C809.71870052 896.68185455 810.29023861 897.31905426 810.87909603 897.97556305 C812.24872494 899.7438736 812.24872494 899.7438736 813.24872494 902.7438736 C813.90872494 902.7438736 814.56872494 902.7438736 815.24872494 902.7438736 C816.62084795 904.27582632 817.92026954 905.8730844 819.18622494 907.4938736 C822.64127999 911.82525117 826.21330944 915.94967566 829.99872494 919.9938736 C832.9518387 923.15485339 835.78981552 926.29901113 838.24872494 929.8688736 C840.10621987 932.91339482 840.10621987 932.91339482 843.24872494 934.7438736 C843.24872494 935.4038736 843.24872494 936.0638736 843.24872494 936.7438736 C843.90872494 936.7438736 844.56872494 936.7438736 845.24872494 936.7438736 C846.75653744 938.4235611 846.75653744 938.4235611 848.37372494 940.6188736 C848.91255306 941.33817047 849.45138119 942.05746735 850.00653744 942.7985611 C851.24872494 944.7438736 851.24872494 944.7438736 851.24872494 946.7438736 C851.84556087 946.82895172 852.44239681 946.91402985 853.05731869 947.0016861 C855.87729426 947.95675804 856.64140498 949.18761573 858.31122494 951.6188736 C859.76818508 953.71349535 861.09873229 955.59840509 862.93231869 957.3766861 C864.24872494 958.7438736 864.24872494 958.7438736 864.24872494 960.7438736 C864.81204525 960.97203766 865.37536556 961.20020172 865.95575619 961.43527985 C868.87604288 963.10188298 870.70608257 965.17108111 872.93622494 967.6813736 C874.11765072 968.99428375 874.11765072 968.99428375 875.32294369 970.33371735 C877.24872494 972.7438736 877.24872494 972.7438736 878.24872494 975.7438736 C879.6465205 977.12644819 879.6465205 977.12644819 881.37372494 978.4313736 C888.19885314 984.091236 893.47900144 991.22599303 899.05341244 998.07590485 C902.66645563 1002.46684524 906.42385849 1006.72540639 910.23700619 1010.94309235 C910.88024837 1011.66110016 911.52349056 1012.37910797 912.18622494 1013.1188736 C913.06601009 1014.08953766 913.06601009 1014.08953766 913.96356869 1015.0798111 C915.24872494 1016.7438736 915.24872494 1016.7438736 915.24872494 1018.7438736 C915.86747494 1018.9913736 916.48622494 1019.2388736 917.12372494 1019.4938736 C919.6523112 1020.98127728 919.96711498 1022.18065368 921.24872494 1024.7438736 C922.20778744 1025.2079361 922.20778744 1025.2079361 923.18622494 1025.6813736 C926.84594695 1027.56668493 927.99547033 1030.98410978 929.24872494 1034.7438736 C930.57975549 1035.41512607 931.91348958 1036.08102462 933.24872494 1036.7438736 C935.24872494 1038.7673111 935.24872494 1038.7673111 937.24872494 1041.1188736 C939.24393245 1043.44921362 941.21531241 1045.71094618 943.40106869 1047.86496735 C945.24872494 1049.7438736 945.24872494 1049.7438736 946.81122494 1052.4313736 C948.0964459 1055.04797801 948.0964459 1055.04797801 951.24872494 1055.7438736 C952.77089451 1057.41711992 954.22059999 1059.15711492 955.62372494 1060.9313736 C956.42294369 1061.9316861 957.22216244 1062.9319986 958.04559994 1063.9626236 C958.77263119 1064.8804361 959.49966244 1065.7982486 960.24872494 1066.7438736 C967.349659 1075.45567309 967.349659 1075.45567309 975.12372494 1083.5563736 C977.24872494 1085.7438736 977.24872494 1085.7438736 978.24872494 1088.7438736 C979.23872494 1089.0738736 980.22872494 1089.4038736 981.24872494 1089.7438736 C983.12252272 1091.95994404 984.88693534 1094.17502478 986.62372494 1096.4938736 C989.94326193 1100.88952423 993.31220485 1104.87064162 997.24872494 1108.7438736 C999.53535407 1111.46903435 1001.74907747 1114.2443155 1003.96747494 1117.0251236 C1006.24058357 1119.81570572 1006.24058357 1119.81570572 1008.96356869 1122.45090485 C1011.24872494 1124.7438736 1011.24872494 1124.7438736 1012.31122494 1126.9313736 C1013.07473494 1128.88567394 1013.07473494 1128.88567394 1014.94403744 1129.44309235 C1018.4102683 1131.39945654 1020.54921114 1134.3252439 1023.06122494 1137.3688736 C1024.1325527 1138.64385424 1025.20416561 1139.91859534 1026.27606869 1141.19309235 C1026.78895443 1141.80716949 1027.30184017 1142.42124664 1027.83026791 1143.05393219 C1029.56613523 1145.12203436 1031.33814019 1147.15611304 1033.12372494 1149.1813736 C1035.23291296 1151.57724737 1037.3118881 1153.99465733 1039.37372494 1156.4313736 C1041.86862481 1159.3543528 1044.492672 1162.06656503 1047.24872494 1164.7438736 C1048.24872494 1165.7438736 1048.24872494 1165.7438736 1048.36225033 1168.33591461 C1048.3543951 1170.0247879 1048.3543951 1170.0247879 1048.34638119 1171.74777985 C1048.3415472 1173.57019196 1048.3415472 1173.57019196 1048.33661556 1175.42942047 C1048.32823666 1176.708815 1048.31985775 1177.98820953 1048.31122494 1179.3063736 C1048.30671322 1180.58963531 1048.3022015 1181.87289703 1048.29755306 1183.19504547 C1048.28572039 1186.37803382 1048.26923562 1189.56093122 1048.24872494 1192.7438736 C1047.25872494 1192.7438736 1046.26872494 1192.7438736 1045.24872494 1192.7438736 C1045.24872494 1193.4038736 1045.24872494 1194.0638736 1045.24872494 1194.7438736 C1044.58872494 1194.7438736 1043.92872494 1194.7438736 1043.24872494 1194.7438736 C1043.24872494 1195.4038736 1043.24872494 1196.0638736 1043.24872494 1196.7438736 C1041.37372494 1198.8688736 1041.37372494 1198.8688736 1039.24872494 1200.7438736 C1038.58872494 1200.7438736 1037.92872494 1200.7438736 1037.24872494 1200.7438736 C1037.24872494 1201.4038736 1037.24872494 1202.0638736 1037.24872494 1202.7438736 C1036.58872494 1202.7438736 1035.92872494 1202.7438736 1035.24872494 1202.7438736 C1035.24872494 1203.4038736 1035.24872494 1204.0638736 1035.24872494 1204.7438736 C1033.37372494 1206.8688736 1033.37372494 1206.8688736 1031.24872494 1208.7438736 C1030.58872494 1208.7438736 1029.92872494 1208.7438736 1029.24872494 1208.7438736 C1028.58872494 1210.0638736 1027.92872494 1211.3838736 1027.24872494 1212.7438736 C992.46198596 1212.92697986 957.67535698 1213.06794823 922.88824018 1213.15239623 C918.78143158 1213.1624019 914.67462392 1213.17275648 910.56781673 1213.18332672 C909.34142832 1213.18647445 909.34142832 1213.18647445 908.09026439 1213.18968576 C894.85139959 1213.22449755 881.61281266 1213.28757458 868.37411272 1213.36109596 C854.79021719 1213.4359053 841.2064672 1213.48034314 827.62237412 1213.49658155 C819.2399035 1213.50755941 810.85821826 1213.54223123 802.47598941 1213.60720533 C796.72814293 1213.64948999 790.98070252 1213.66227541 785.23271178 1213.65188462 C781.9158692 1213.64675929 778.60068853 1213.65898924 775.28402615 1213.6975174 C771.68578786 1213.73727139 768.09092095 1213.72777521 764.49260616 1213.70590973 C762.92401125 1213.74086383 762.92401125 1213.74086383 761.32372755 1213.77652407 C754.37744396 1213.66226911 754.37744396 1213.66226911 751.08879197 1210.98641872 C749.32579012 1208.98057348 747.78460768 1206.92547254 746.24872494 1204.7438736 C745.42372494 1203.9188736 744.59872494 1203.0938736 743.74872494 1202.2438736 C738.93336406 1197.42851272 734.28409117 1192.23197167 730.24872494 1186.7438736 C730.24872494 1186.0838736 730.24872494 1185.4238736 730.24872494 1184.7438736 C729.69958431 1184.54149078 729.15044369 1184.33910797 728.58466244 1184.13059235 C725.33031145 1182.19866158 723.22783475 1179.45626978 720.87372494 1176.5563736 C719.90135425 1175.37905435 718.92870013 1174.20196914 717.95575619 1173.0251236 C717.49121029 1172.45922516 717.02666439 1171.89332672 716.54804134 1171.31027985 C714.92661541 1169.35555064 713.24714441 1167.4555478 711.56122494 1165.5563736 C709.24872494 1162.7438736 709.24872494 1162.7438736 709.24872494 1160.7438736 C708.58872494 1160.7438736 707.92872494 1160.7438736 707.24872494 1160.7438736 C706.01330624 1159.04099918 704.78331855 1157.33368145 703.59247494 1155.59934235 C701.73489601 1153.03437145 699.51302815 1150.95551859 697.24872494 1148.7438736 C695.21706513 1146.48873121 693.21262211 1144.21153432 691.21356869 1141.92746735 C689.88175952 1140.44738519 688.50276314 1139.00868381 687.08466244 1137.6110611 C685.24872494 1135.7438736 685.24872494 1135.7438736 683.93622494 1133.4313736 C682.00677698 1130.35854907 679.7423982 1128.15151289 677.14716244 1125.63840485 C674.58324952 1123.07976747 672.24901033 1120.34860847 669.89325619 1117.59934235 C668.4306308 1115.9491118 666.91801134 1114.4385845 665.31122494 1112.9313736 C663.24872494 1110.7438736 663.24872494 1110.7438736 663.24872494 1107.7438736 C662.58872494 1107.7438736 661.92872494 1107.7438736 661.24872494 1107.7438736 C659.55731869 1106.09934235 659.55731869 1106.09934235 657.68622494 1103.9313736 C657.06618587 1103.22367828 656.44614681 1102.51598297 655.80731869 1101.78684235 C654.24872494 1099.7438736 654.24872494 1099.7438736 653.24872494 1096.7438736 C652.58872494 1096.7438736 651.92872494 1096.7438736 651.24872494 1096.7438736 C649.73769964 1094.85583413 648.32539858 1092.96856671 646.93622494 1090.9938736 C644.00161821 1086.86848417 641.23965289 1083.83404845 637.24872494 1080.7438736 C635.77216244 1078.8923111 635.77216244 1078.8923111 634.62372494 1077.1188736 C632.9029338 1074.47416775 632.01009252 1073.58478532 629.24872494 1071.7438736 C628.80915462 1071.00524078 628.36958431 1070.26660797 627.91669369 1069.50559235 C625.48386829 1065.47747161 622.25669734 1062.32453965 619.01239681 1058.94113922 C615.24872494 1054.94632061 615.24872494 1054.94632061 615.24872494 1052.7438736 C614.25872494 1052.4138736 613.26872494 1052.0838736 612.24872494 1051.7438736 C610.38153744 1049.6344986 610.38153744 1049.6344986 608.37372494 1046.9938736 C606.22552009 1044.227424 604.16530134 1041.66044999 601.68622494 1039.1813736 C598.89443869 1036.38958735 596.61514662 1033.36738314 594.22919369 1030.2282486 C591.32603968 1026.58642226 588.15530945 1023.20682435 584.97138119 1019.81027985 C583.24872494 1017.7438736 583.24872494 1017.7438736 583.24872494 1015.7438736 C582.65059994 1015.6819986 582.05247494 1015.6201236 581.43622494 1015.5563736 C578.33777149 1014.40551946 577.69555437 1012.63753246 576.24872494 1009.7438736 C575.91872494 1008.7538736 575.58872494 1007.7638736 575.24872494 1006.7438736 C574.65962337 1006.46156891 574.07052181 1006.17926422 573.46356869 1005.88840485 C570.41613038 1004.31362632 568.91373741 1002.12419287 566.81122494 999.4313736 C563.81436931 995.61103416 560.7122705 992.14586988 557.24872494 988.7438736 C556.15086391 987.52766516 555.06633434 986.29922192 553.99872494 985.0563736 C551.23787876 981.86055821 548.41344663 978.73336854 545.56122494 975.6188736 C543.15857625 972.96374318 540.87069356 970.3848168 538.93622494 967.3688736 C537.32971374 964.66554016 537.32971374 964.66554016 534.99872494 962.4938736 C534.42122494 961.9163736 533.84372494 961.3388736 533.24872494 960.7438736 C533.24872494 960.0838736 533.24872494 959.4238736 533.24872494 958.7438736 C532.25872494 958.4138736 531.26872494 958.0838736 530.24872494 957.7438736 C528.87390042 956.21434483 527.57206597 954.61864453 526.31122494 952.9938736 C522.73922249 948.51284606 519.03403698 944.24459447 515.12372494 940.0563736 C514.61293392 939.50771637 514.10214291 938.95905914 513.57587337 938.39377594 C512.58700432 937.33171651 511.59791774 936.26985957 510.60858822 935.20822906 C508.73969806 933.19573298 506.89121276 931.16680658 505.06122494 929.1188736 C504.53142025 928.52848297 504.00161556 927.93809235 503.45575619 927.3298111 C502.24872494 925.7438736 502.24872494 925.7438736 501.24872494 922.7438736 C500.58872494 922.7438736 499.92872494 922.7438736 499.24872494 922.7438736 C498.24872494 921.07720693 497.24872494 919.41054026 496.24872494 917.7438736 C493.89185637 915.26613997 491.45361628 912.93215213 488.93622494 910.6188736 C487.24872494 908.7438736 487.24872494 908.7438736 487.24872494 905.7438736 C486.58872494 905.7438736 485.92872494 905.7438736 485.24872494 905.7438736 C483.66278744 904.16965485 483.66278744 904.16965485 481.87372494 902.0563736 C480.93786556 900.95809235 480.93786556 900.95809235 479.98309994 899.8376236 C478.67652817 898.26032074 477.39407494 896.66299271 476.12372494 895.0563736 C474.25630186 892.67135166 474.25630186 892.67135166 471.93622494 890.4313736 C469.21968077 887.71482942 466.7165801 884.8868335 464.20575619 881.98215485 C462.06734827 879.53643082 459.8779504 877.1418791 457.68622494 874.7438736 C447.24872494 863.16253798 447.24872494 863.16253798 447.24872494 859.7438736 C446.65575619 859.4860611 446.06278744 859.2282486 445.45184994 858.9626236 C443.07211529 857.64617464 441.73893702 856.31806577 439.99872494 854.2438736 C439.47794369 853.6354361 438.95716244 853.0269986 438.42059994 852.4001236 C437.24872494 850.7438736 437.24872494 850.7438736 437.24872494 848.7438736 C436.58872494 848.7438736 435.92872494 848.7438736 435.24872494 848.7438736 C433.76825619 847.02121735 433.76825619 847.02121735 432.06122494 844.6813736 C429.27721669 840.98476513 426.38772779 837.75217485 422.99133396 834.61667633 C421.24872494 832.7438736 421.24872494 832.7438736 420.20538044 830.69333649 C418.8271403 828.0507881 417.63436001 826.55969407 415.24872494 824.7438736 C409.53505186 823.50522183 403.86731667 823.67336391 398.04413509 823.7438736 C396.26985564 823.73626464 394.49558828 823.72514336 392.72135067 823.71077728 C387.91148917 823.68177139 383.10293983 823.70186958 378.29312468 823.730793 C373.26420001 823.75268117 368.23548929 823.72940103 363.20658016 823.71091461 C353.68679522 823.68278128 344.16751412 823.69526232 334.64774358 823.72233868 C323.80856139 823.75119001 312.96959579 823.73475943 302.13041139 823.71452713 C279.83638876 823.67392773 257.54270678 823.69018737 235.24872494 823.7438736 C235.25062354 824.51853586 235.25252214 825.29319812 235.25447828 826.091335 C235.36630483 871.97733868 235.4521254 917.86332757 235.50405158 963.74944014 C235.51030532 969.25580426 235.51677691 974.7621681 235.52338314 980.2685318 C235.52469469 981.36477587 235.52600624 982.46101994 235.52735754 983.59048352 C235.54912969 1001.35393 235.58856118 1019.11729579 235.63448892 1036.88069435 C235.68120322 1055.09990339 235.70900969 1073.3190701 235.71916741 1091.53833658 C235.726037 1102.78576315 235.74775426 1114.03296167 235.78830727 1125.28031806 C235.81468359 1132.98713089 235.82273754 1140.69382537 235.81623182 1148.40068009 C235.81302095 1152.85096664 235.81803322 1157.30085398 235.84475231 1161.75107002 C235.86902285 1165.82309173 235.87035339 1169.89444448 235.85321941 1173.9664965 C235.85110076 1175.44169007 235.85749637 1176.9169248 235.87314085 1178.39203694 C235.89313914 1180.39361354 235.87943069 1182.39544269 235.86396408 1184.39705944 C235.86586268 1185.51001973 235.86776128 1186.62298002 235.86971742 1187.76966637 C235.04456395 1191.72169073 233.23588927 1193.10728453 230.24872494 1195.7438736 C229.08987298 1197.11061386 227.94521553 1198.48955724 226.8173027 1199.88193989 C220.75334193 1206.95500684 215.19271201 1213.38004477 205.57624471 1214.6420759 C200.76440015 1214.92679698 196.00235236 1214.8496036 191.18695736 1214.70554352 C189.02347267 1214.70401877 186.8599719 1214.70998805 184.69652462 1214.72280121 C178.87273816 1214.73611835 173.05490769 1214.64506091 167.23235393 1214.53343368 C161.12465165 1214.4339584 155.01685708 1214.43044385 148.9084692 1214.41582489 C138.66854759 1214.3782529 128.43080734 1214.27951887 118.19184017 1214.13620758 C103.74382983 1213.93404445 89.29662278 1213.84060872 74.84745157 1213.76982725 C55.4975867 1213.66946335 36.14695338 1213.53849876 16.79848576 1213.28107643 C14.70547926 1213.25441859 12.61242842 1213.23101921 10.51934719 1213.21107483 C7.66848058 1213.18302686 4.81805899 1213.14267947 1.96739864 1213.09877777 C0.71825681 1213.09012224 0.71825681 1213.09012224 -0.55612022 1213.08129185 C-4.40522191 1213.00839447 -7.49100519 1212.93478119 -10.75127506 1210.7438736 C-10.75127506 1210.0838736 -10.75127506 1209.4238736 -10.75127506 1208.7438736 C-11.30815006 1208.4963736 -11.86502506 1208.2488736 -12.43877506 1207.9938736 C-17.71881226 1205.13979943 -21.30856974 1201.09824876 -25.10283756 1196.5485611 C-26.81759837 1194.52615104 -26.81759837 1194.52615104 -29.75127506 1192.7438736 C-30.0506317 1190.08279912 -30.1507632 1187.65342077 -30.12502122 1184.98929167 C-30.12897971 1184.17380956 -30.1329382 1183.35832746 -30.13701664 1182.51813377 C-30.14671971 1179.75039345 -30.13480479 1176.98315103 -30.12321186 1174.21542358 C-30.12573146 1172.21663966 -30.12956726 1170.21785704 -30.13460922 1168.21907789 C-30.14470963 1162.67863956 -30.13591416 1157.13836187 -30.124275 1151.59793238 C-30.1149176 1145.58855141 -30.12285906 1139.57919045 -30.12867332 1133.56980848 C-30.13645659 1123.02177988 -30.13310695 1112.47379412 -30.12234974 1101.92577171 C-30.11085804 1090.60322623 -30.10586853 1079.28070591 -30.10889149 1067.95815468 C-30.10907804 1067.24405753 -30.1092646 1066.52996038 -30.10945681 1065.79422393 C-30.11043714 1062.15328643 -30.11152197 1058.51234897 -30.11264202 1054.87141152 C-30.12052908 1028.49063924 -30.11372581 1002.10988685 -30.09903049 975.72911835 C-30.08450217 949.59503265 -30.07572422 923.46095603 -30.07484531 897.32686615 C-30.07478368 895.68748802 -30.07472197 894.04810989 -30.07466018 892.40873175 C-30.07442447 885.82122157 -30.07423865 879.23371138 -30.07411204 872.64620119 C-30.07375023 854.22987298 -30.07240199 835.8135449 -30.07034779 817.3972168 C-30.0702548 816.55848868 -30.07016181 815.71976056 -30.070066 814.85561643 C-30.06544552 774.03630202 -30.04928054 733.2169931 -30.03252506 692.39768219 C-30.00922294 635.62847546 -29.99505716 578.85927648 -29.99150944 522.090065 C-29.99139705 520.32369097 -29.99128441 518.55731693 -29.99117151 516.7909429 C-29.99077805 510.62063852 -29.99039088 504.45033414 -29.99000438 498.28002976 C-29.98967429 493.01061113 -29.98934241 487.7411925 -29.98900852 482.47177387 C-29.98884307 479.84447347 -29.98868093 477.21717307 -29.9885189 474.58987267 C-29.98509112 419.66118206 -29.973934 364.73249282 -29.9612757 309.80380365 C-29.9573306 292.64912435 -29.9538321 275.49444514 -29.9514637 258.33976555 C-29.94666764 223.96884922 -29.93961975 189.59793752 -29.92331603 155.22702444 C-29.92195314 152.32788047 -29.92060319 149.42873649 -29.91926289 146.52959251 C-29.91893203 145.81806374 -29.91860117 145.10653497 -29.91826028 144.37344472 C-29.91309175 133.07829292 -29.91125434 121.78314313 -29.91076554 110.48799026 C-29.91021039 99.39838936 -29.90599759 88.30879373 -29.89807938 77.21919536 C-29.89393559 71.27992124 -29.89140818 65.34065794 -29.89319459 59.40138239 C-29.89477877 54.00988182 -29.89184597 48.61840427 -29.88513902 43.22690781 C-29.8835316 41.2774522 -29.88363726 39.32799432 -29.88556629 37.378539 C-29.88792578 34.7518162 -29.88424282 32.12517228 -29.87892556 29.49845552 C-29.88108003 28.73172396 -29.88323451 27.96499239 -29.88545426 27.17502653 C-29.86543212 21.97218771 -29.86543212 21.97218771 -28.75127506 19.7438736 C-28.09127506 19.7438736 -27.43127506 19.7438736 -26.75127506 19.7438736 C-26.42127506 18.7538736 -26.09127506 17.7638736 -25.75127506 16.7438736 C-24.30619965 15.49585393 -22.85589188 14.25263645 -21.36455631 13.06027985 C-17.93925861 10.26530327 -15.13267868 7.32518895 -12.708386 3.63020945 C-9.19614091 -0.56198499 -5.15074387 -0.08454687 0 0 Z " fill="#020202" transform="translate(194.75127506256104,575.2561264038086)"/>
<path d="M0 0 C0.74122101 0.08420197 1.48244202 0.16840393 2.24612427 0.25515747 C34.33424421 3.92974493 65.54716158 10.95345966 96.4375 20.3125 C97.25782715 20.56064453 98.0781543 20.80878906 98.92333984 21.06445312 C112.53151416 25.2001861 112.53151416 25.2001861 118.41015625 27.515625 C120.03387393 28.15384929 121.66950852 28.76172215 123.30859375 29.359375 C130.43686209 31.99503724 137.17251071 35.08106574 143.9375 38.5390625 C151.26440987 42.25158157 158.59748555 45.82749542 166.4375 48.3125 C166.4375 48.9725 166.4375 49.6325 166.4375 50.3125 C167.345 50.60125 168.2525 50.89 169.1875 51.1875 C171.75952908 52.07781776 174.05096766 53.02744413 176.4375 54.3125 C176.4375 54.9725 176.4375 55.6325 176.4375 56.3125 C177.2625 56.56 178.0875 56.8075 178.9375 57.0625 C182.96123471 58.49954811 186.65729024 60.33604515 190.4375 62.3125 C190.4375 62.9725 190.4375 63.6325 190.4375 64.3125 C191.14261719 64.5703125 191.84773438 64.828125 192.57421875 65.09375 C195.68019315 66.41580186 198.39728065 68.00997854 201.25 69.8125 C202.22582031 70.4209375 203.20164062 71.029375 204.20703125 71.65625 C205.31111328 72.47609375 205.31111328 72.47609375 206.4375 73.3125 C206.4375 73.9725 206.4375 74.6325 206.4375 75.3125 C208.4175 75.9725 210.3975 76.6325 212.4375 77.3125 C212.4375 77.9725 212.4375 78.6325 212.4375 79.3125 C213.159375 79.56 213.88125 79.8075 214.625 80.0625 C217.71356582 81.43519592 219.94761418 83.03603296 222.4375 85.3125 C222.4375 85.9725 222.4375 86.6325 222.4375 87.3125 C223.02144531 87.58400879 223.60539062 87.85551758 224.20703125 88.13525391 C228.00135748 90.13790727 231.14199858 92.96174413 234.4375 95.6875 C235.56502686 96.6161084 235.56502686 96.6161084 236.71533203 97.56347656 C242.51581562 102.40400792 247.89059797 107.53622353 253.1171875 112.984375 C255.4058861 115.43425355 255.4058861 115.43425355 258.4375 117.3125 C258.4375 118.3025 258.4375 119.2925 258.4375 120.3125 C258.994375 120.539375 259.55125 120.76625 260.125 121 C264.81874773 123.66401898 268.28565314 127.99330245 271.4375 132.3125 C271.4375 132.9725 271.4375 133.6325 271.4375 134.3125 C272.02273438 134.55355469 272.60796875 134.79460937 273.2109375 135.04296875 C275.86471174 136.55608564 277.21383282 138.20218729 279.0625 140.625 C279.65289063 141.38425781 280.24328125 142.14351562 280.8515625 142.92578125 C282.44339839 145.32137664 283.47166822 147.61103981 284.4375 150.3125 C285.0975 150.3125 285.7575 150.3125 286.4375 150.3125 C287.81887335 151.98715856 289.11896716 153.72939132 290.375 155.5 C291.06464844 156.46292969 291.75429687 157.42585938 292.46484375 158.41796875 C294.22575397 161.00179939 295.83811986 163.62750708 297.4375 166.3125 C298.23532114 167.44795704 299.04671635 168.57406952 299.875 169.6875 C301.85179569 172.42460173 303.57846912 175.22000905 305.2109375 178.1796875 C306.84876025 181.02762132 308.62146056 183.78442066 310.375 186.5625 C319.4375 201.21495327 319.4375 201.21495327 319.4375 206.3125 C320.0975 206.3125 320.7575 206.3125 321.4375 206.3125 C321.4375 207.6325 321.4375 208.9525 321.4375 210.3125 C322.0975 210.3125 322.7575 210.3125 323.4375 210.3125 C323.4375 211.6325 323.4375 212.9525 323.4375 214.3125 C324.0975 214.3125 324.7575 214.3125 325.4375 214.3125 C325.74042969 215.05113281 326.04335937 215.78976562 326.35546875 216.55078125 C328.48990034 221.71938944 330.66016111 226.8581603 333 231.9375 C338.28495179 243.49833203 343.43426715 255.52128113 344.4375 268.3125 C345.0975 268.3125 345.7575 268.3125 346.4375 268.3125 C354.60820382 293.83291107 361.0169126 319.48991895 365.0625 346 C365.21124573 346.96373535 365.35999146 347.9274707 365.51324463 348.92041016 C368.33663074 367.33534237 370.33413136 385.71756235 371.4375 404.3125 C371.50662598 405.46234375 371.57575195 406.6121875 371.64697266 407.796875 C373.648956 443.8008815 373.57403825 480.38446315 370.4375 516.3125 C370.31292237 517.77911471 370.188583 519.24574967 370.06445312 520.71240234 C369.68148786 525.20534715 369.28345129 529.69680322 368.875 534.1875 C368.81106049 534.89224457 368.74712097 535.59698914 368.6812439 536.3230896 C368.499684 538.29660345 368.3105786 540.26941879 368.12109375 542.2421875 C368.01337646 543.36866699 367.90565918 544.49514648 367.79467773 545.65576172 C367.4375 548.3125 367.4375 548.3125 366.4375 550.3125 C157.2175 550.3125 -52.0025 550.3125 -267.5625 550.3125 C-265.9125 554.9325 -264.2625 559.5525 -262.5625 564.3125 C-262.5625 565.6325 -262.5625 566.9525 -262.5625 568.3125 C-261.9025 568.3125 -261.2425 568.3125 -260.5625 568.3125 C-260.34335938 569.00214844 -260.12421875 569.69179687 -259.8984375 570.40234375 C-257.94908416 576.17908597 -255.72719877 581.0284846 -252.19921875 585.99609375 C-250.38429223 588.56471291 -248.72567168 591.2058481 -247.0625 593.875 C-241.90227648 601.98071059 -236.13019805 609.0121944 -229.5390625 615.9921875 C-227.5625 618.3125 -227.5625 618.3125 -227.5625 620.3125 C-226.9025 620.3125 -226.2425 620.3125 -225.5625 620.3125 C-225.2325 620.9725 -224.9025 621.6325 -224.5625 622.3125 C-223.44875 622.9621875 -223.44875 622.9621875 -222.3125 623.625 C-219.2450172 625.50731899 -217.10103934 627.77396066 -214.5625 630.3125 C-212.90301852 631.32437895 -211.23669438 632.3251546 -209.5625 633.3125 C-208.22916667 634.64583333 -206.89583333 635.97916667 -205.5625 637.3125 C-203.42940808 638.54762079 -203.42940808 638.54762079 -201.5625 639.3125 C-201.5625 639.9725 -201.5625 640.6325 -201.5625 641.3125 C-200.86125 641.56 -200.16 641.8075 -199.4375 642.0625 C-196.19164068 643.47374318 -193.50378133 645.35164578 -190.5625 647.3125 C-188.90811387 648.00908363 -187.23995682 648.67346883 -185.5625 649.3125 C-182.87641156 650.60784732 -180.21775643 651.95522252 -177.5625 653.3125 C-177.5625 653.9725 -177.5625 654.6325 -177.5625 655.3125 C-176.94503906 655.48265625 -176.32757812 655.6528125 -175.69140625 655.828125 C-170.4163817 657.33756886 -165.51982473 659.15080837 -160.546875 661.4609375 C-158.25436904 662.44472943 -156.03540223 662.99341584 -153.5625 663.3125 C-153.5625 663.9725 -153.5625 664.6325 -153.5625 665.3125 C-152.64718506 665.48011841 -152.64718506 665.48011841 -151.71337891 665.65112305 C-146.53807409 666.63691899 -141.52955682 667.85516883 -136.4855957 669.3684082 C-126.05852886 672.46445881 -115.60731553 674.48172354 -104.875 676.125 C-104.19467712 676.22986725 -103.51435425 676.3347345 -102.81341553 676.44277954 C-98.40259797 677.11597173 -93.9866223 677.73359922 -89.5625 678.3125 C-88.69181885 678.42811279 -87.8211377 678.54372559 -86.92407227 678.6628418 C-76.96739073 679.77308728 -66.87898829 679.51008888 -56.875 679.5 C-55.36608688 679.49959213 -55.36608688 679.49959213 -53.82669067 679.49917603 C-38.98230802 679.48068729 -24.30500689 679.21205423 -9.5625 677.3125 C-8.28560303 677.15177002 -8.28560303 677.15177002 -6.98291016 676.98779297 C16.94201342 673.8871662 39.88296416 668.16916371 62.8125 660.78515625 C65.82320778 659.81751881 68.84094881 658.88778571 71.875 657.99609375 C78.23134789 656.11665418 84.2422429 654.23868003 89.94921875 650.78125 C93.47316546 648.70118099 97.10219992 646.85199136 100.75 645 C101.79220703 644.45702271 101.79220703 644.45702271 102.85546875 643.90307617 C106.3743393 642.12181911 108.41938242 641.3125 112.4375 641.3125 C112.7675 640.3225 113.0975 639.3325 113.4375 638.3125 C115.26543203 637.36468339 117.10080298 636.42879427 118.96875 635.5625 C122.87886874 633.58269304 126.46792429 631.1224137 130.1171875 628.703125 C132.4375 627.3125 132.4375 627.3125 134.4375 627.3125 C134.4375 626.6525 134.4375 625.9925 134.4375 625.3125 C136.01171875 624.19921875 136.01171875 624.19921875 138.125 623 C141.76627991 620.83195878 144.47685494 618.35773492 147.4375 615.3125 C148.4275 614.9825 149.4175 614.6525 150.4375 614.3125 C151.64632096 612.31233534 151.64632096 612.31233534 152.4375 610.3125 C157.04559095 610.21334386 161.65305592 610.14089818 166.26196289 610.09277344 C167.82847923 610.07270442 169.39492109 610.04544249 170.96118164 610.01074219 C173.21779794 609.96201246 175.47342083 609.9394853 177.73046875 609.921875 C178.42649704 609.90122986 179.12252533 609.88058472 179.83964539 609.85931396 C184.67713519 609.85710057 187.02779254 610.9211474 190.4375 614.3125 C191.035625 615.075625 191.63375 615.83875 192.25 616.625 C194.67625514 619.60582775 197.35574471 621.9120669 200.265625 624.40625 C203.81571896 627.52215981 207.345962 630.73585364 210.4375 634.3125 C210.4375 634.9725 210.4375 635.6325 210.4375 636.3125 C211.015 636.56 211.5925 636.8075 212.1875 637.0625 C214.76689979 638.49549988 216.49871592 640.09674676 218.4375 642.3125 C218.4375 642.9725 218.4375 643.6325 218.4375 644.3125 C219.0975 644.3125 219.7575 644.3125 220.4375 644.3125 C220.4375 644.9725 220.4375 645.6325 220.4375 646.3125 C221.0975 646.3125 221.7575 646.3125 222.4375 646.3125 C223.79136936 647.96252828 225.12428142 649.6299387 226.4375 651.3125 C227.0975 651.6425 227.7575 651.9725 228.4375 652.3125 C228.4375 652.9725 228.4375 653.6325 228.4375 654.3125 C229.0975 654.3125 229.7575 654.3125 230.4375 654.3125 C231.79136936 655.96252828 233.12428142 657.6299387 234.4375 659.3125 C235.0975 659.6425 235.7575 659.9725 236.4375 660.3125 C236.4375 660.9725 236.4375 661.6325 236.4375 662.3125 C236.97375 662.539375 237.51 662.76625 238.0625 663 C244.53473569 666.57676183 249.74038703 672.25523984 254.4375 677.875 C256.86945146 680.75477883 259.44304608 683.00907391 262.4375 685.3125 C265.29916082 688.02740898 267.91196212 690.85210555 270.4375 693.875 C272.86945146 696.75477883 275.44304608 699.00907391 278.4375 701.3125 C280.11939448 702.96567142 281.78014669 704.63493202 283.4375 706.3125 C284.92630564 707.80286062 286.41597453 709.29235912 287.90625 710.78125 C302.08333333 724.95833333 316.26041667 739.13541667 330.4375 753.3125 C330.4375 754.3025 330.4375 755.2925 330.4375 756.3125 C327.10416667 759.3125 327.10416667 759.3125 324.4375 759.3125 C324.19 759.869375 323.9425 760.42625 323.6875 761 C321.08417532 765.81615066 317.33118061 769.51865735 313.4375 773.3125 C312.6021875 774.2096875 312.6021875 774.2096875 311.75 775.125 C310.4375 776.3125 310.4375 776.3125 308.4375 776.3125 C308.4375 776.9725 308.4375 777.6325 308.4375 778.3125 C307.7775 778.3125 307.1175 778.3125 306.4375 778.3125 C306.4375 778.9725 306.4375 779.6325 306.4375 780.3125 C304.9873829 781.56487386 303.53122928 782.81170574 302.03125 784.00390625 C300.26157293 785.40740928 300.26157293 785.40740928 298.1875 787.625 C296.4375 789.3125 296.4375 789.3125 294.4375 789.3125 C294.4375 789.9725 294.4375 790.6325 294.4375 791.3125 C288.96130952 796.3125 288.96130952 796.3125 286.4375 796.3125 C286.4375 796.9725 286.4375 797.6325 286.4375 798.3125 C281.02573529 802.3125 281.02573529 802.3125 278.4375 802.3125 C278.4375 802.9725 278.4375 803.6325 278.4375 804.3125 C277.01171875 805.49609375 277.01171875 805.49609375 275.125 806.75 C273.26509544 807.99383554 271.60507778 809.14022817 270.04296875 810.74609375 C267.91292941 812.82430731 265.55551836 814.31336203 263.0625 815.9375 C259.13453172 818.51656503 255.2467346 821.13014838 251.4050293 823.83569336 C236.51254194 834.3125 236.51254194 834.3125 232.4375 834.3125 C232.4375 834.9725 232.4375 835.6325 232.4375 836.3125 C229.00496383 839.74503617 225.03307145 840.31679285 220.4375 841.3125 C220.4375 841.9725 220.4375 842.6325 220.4375 843.3125 C219.24125 843.8075 218.045 844.3025 216.8125 844.8125 C212.50897704 846.71611205 208.44224865 848.95523346 204.375 851.3125 C195.9771606 856.16234635 188.03414368 859.88680761 178.8515625 863.08203125 C174.60466389 864.61266404 170.53114501 866.41842545 166.4375 868.3125 C163.35813899 869.65135261 161.79996468 870.3125 158.4375 870.3125 C158.4375 870.9725 158.4375 871.6325 158.4375 872.3125 C157.83091553 872.48628174 157.22433105 872.66006348 156.59936523 872.83911133 C151.35177449 874.37350343 146.22277558 876.08242688 141.10913086 878.0144043 C123.68933489 884.594709 105.83109238 889.87549189 87.75 894.3125 C86.91976318 894.52028076 86.08952637 894.72806152 85.23413086 894.94213867 C80.17929777 896.13154178 75.63008669 896.50240031 70.4375 896.3125 C70.4375 896.9725 70.4375 897.6325 70.4375 898.3125 C68.96875 898.55729167 67.5 898.80208333 66.03125 899.046875 C65.07307373 899.20679932 64.11489746 899.36672363 63.12768555 899.53149414 C60.9627804 899.89184225 58.79756691 900.25034184 56.63208008 900.60717773 C51.32310055 901.48443304 46.02071128 902.37885552 40.73046875 903.36328125 C23.83180286 906.44961325 6.85812765 907.87278493 -10.25628662 909.13464355 C-12.00919575 909.26982887 -13.76122285 909.41650818 -15.51275635 909.56848145 C-23.11582352 910.20753818 -30.64532856 910.45953494 -38.2734375 910.4453125 C-39.44347321 910.44626923 -40.61350891 910.44722595 -41.81900024 910.44821167 C-44.28118952 910.44888745 -46.74338063 910.44707554 -49.20556641 910.44287109 C-52.89359751 910.43756319 -56.58150411 910.44281165 -60.26953125 910.44921875 C-80.91368719 910.45710124 -101.40046616 909.90736182 -121.92871094 907.63793945 C-124.35525808 907.37028365 -126.78290417 907.11511519 -129.2109375 906.86132812 C-136.55794238 906.07924696 -143.83197454 905.20709894 -151.08837891 903.78833008 C-153.66282338 903.29320552 -156.24022605 902.88196417 -158.83203125 902.48828125 C-183.51977857 898.68039676 -207.72887943 892.76630899 -231.5625 885.3125 C-232.3654248 885.06145508 -233.16834961 884.81041016 -233.99560547 884.55175781 C-270.10418759 873.13299995 -270.10418759 873.13299995 -282 865.8125 C-285.24638762 863.91217554 -288.63736814 862.67772596 -292.16015625 861.375 C-294.61804505 860.28793373 -296.44667634 858.95226334 -298.5625 857.3125 C-300.13701489 856.64249366 -301.71291377 855.97548307 -303.296875 855.328125 C-310.04686981 852.30226526 -316.67808955 848.80017126 -322.5625 844.3125 C-324.21047236 843.60087557 -325.87415408 842.92218047 -327.5625 842.3125 C-327.5625 841.6525 -327.5625 840.9925 -327.5625 840.3125 C-328.47 840.02375 -329.3775 839.735 -330.3125 839.4375 C-332.88452908 838.54718224 -335.17596766 837.59755587 -337.5625 836.3125 C-337.5625 835.6525 -337.5625 834.9925 -337.5625 834.3125 C-338.366875 834.044375 -339.17125 833.77625 -340 833.5 C-341.2684375 832.9121875 -341.2684375 832.9121875 -342.5625 832.3125 C-342.8925 831.3225 -343.2225 830.3325 -343.5625 829.3125 C-344.366875 829.291875 -345.17125 829.27125 -346 829.25 C-350.32341565 828.11225904 -352.65635024 826.14848667 -356.0703125 823.34375 C-358.68961937 821.20889174 -361.38323864 819.22467577 -364.125 817.25 C-365.04152344 816.58613281 -365.95804688 815.92226562 -366.90234375 815.23828125 C-367.78019531 814.60277344 -368.65804688 813.96726562 -369.5625 813.3125 C-371.10778602 812.19247669 -372.64987878 811.06802293 -374.1875 809.9375 C-374.81914063 809.47601562 -375.45078125 809.01453125 -376.1015625 808.5390625 C-377.5625 807.3125 -377.5625 807.3125 -378.5625 805.3125 C-379.5525 804.9825 -380.5425 804.6525 -381.5625 804.3125 C-381.5625 803.6525 -381.5625 802.9925 -381.5625 802.3125 C-382.2225 802.3125 -382.8825 802.3125 -383.5625 802.3125 C-384.09875 801.631875 -384.635 800.95125 -385.1875 800.25 C-389.0583018 795.46242935 -393.82041517 791.69905731 -398.625 787.875 C-401.60881279 785.27209948 -404.06319267 782.519923 -406.6171875 779.5078125 C-409.52160474 776.23013682 -412.67922043 773.22402332 -415.83984375 770.1953125 C-417.5625 768.3125 -417.5625 768.3125 -417.5625 766.3125 C-418.2225 766.3125 -418.8825 766.3125 -419.5625 766.3125 C-421.26171875 764.44140625 -421.26171875 764.44140625 -423.25 761.875 C-423.96027344 760.96492188 -424.67054687 760.05484375 -425.40234375 759.1171875 C-426.11519531 758.19164062 -426.82804687 757.26609375 -427.5625 756.3125 C-428.81227647 754.70815918 -430.06225999 753.10397962 -431.3125 751.5 C-431.87582031 750.77039062 -432.43914062 750.04078125 -433.01953125 749.2890625 C-434.316658 747.62742671 -435.65390327 745.99721913 -437 744.375 C-438.5625 742.3125 -438.5625 742.3125 -438.5625 740.3125 C-439.5525 739.9825 -440.5425 739.6525 -441.5625 739.3125 C-444.5625 734.97916667 -444.5625 734.97916667 -444.5625 732.3125 C-445.2225 732.3125 -445.8825 732.3125 -446.5625 732.3125 C-447.640625 730.9140625 -447.640625 730.9140625 -448.8125 728.9375 C-449.47113037 727.84139404 -449.47113037 727.84139404 -450.14306641 726.72314453 C-450.61147949 725.92763184 -451.07989258 725.13211914 -451.5625 724.3125 C-452.54849279 722.66347232 -453.53549418 721.01504734 -454.5234375 719.3671875 C-455.02584961 718.52639648 -455.52826172 717.68560547 -456.04589844 716.81933594 C-457.49427867 714.42526506 -458.97502398 712.05633126 -460.4765625 709.6953125 C-460.93289063 708.97730469 -461.38921875 708.25929688 -461.859375 707.51953125 C-462.72804089 706.15776972 -463.60029702 704.79829007 -464.4765625 703.44140625 C-466.39955081 700.41143454 -467.81841941 697.81758641 -468.5625 694.3125 C-469.2225 694.3125 -469.8825 694.3125 -470.5625 694.3125 C-477.5625 680.3125 -477.5625 680.3125 -478.53125 678.3671875 C-479.27309884 676.88910988 -480.02423022 675.41567784 -480.78125 673.9453125 C-483.28856144 669.03770901 -485.5253646 664.11534959 -487.515625 658.9765625 C-489.12726033 654.8753114 -490.87616869 650.83235872 -492.609375 646.78125 C-493.5625 644.3125 -493.5625 644.3125 -493.5625 642.3125 C-494.2225 642.3125 -494.8825 642.3125 -495.5625 642.3125 C-495.73265625 641.56226563 -495.9028125 640.81203125 -496.078125 640.0390625 C-497.26496091 635.02657466 -498.49584066 630.19044706 -500.5 625.4375 C-502.57114813 620.4980071 -504.01261705 615.48040829 -505.43359375 610.3203125 C-506.23028154 607.44414678 -507.08483489 604.59152989 -507.97265625 601.7421875 C-510.76879972 592.74864853 -513.30370953 583.73803106 -515.4375 574.5625 C-515.65269287 573.65822266 -515.86788574 572.75394531 -516.08959961 571.82226562 C-517.283494 566.5230935 -517.77721349 561.74348832 -517.5625 556.3125 C-518.2225 556.3125 -518.8825 556.3125 -519.5625 556.3125 C-520.38960163 550.6293859 -521.20684105 544.94495778 -522.01611328 539.25927734 C-522.29094487 537.33736695 -522.56817522 535.4157976 -522.84814453 533.49462891 C-526.43106503 508.87983574 -527.89955182 484.62900319 -527.82324219 459.77978516 C-527.81193229 456.08074087 -527.81859931 452.38198698 -527.83009624 448.68295288 C-527.90340119 421.04283487 -527.07382283 393.59247308 -522.25 366.3125 C-521.93625941 364.47133327 -521.62336617 362.63002198 -521.3112793 360.78857422 C-515.30759958 325.70168113 -515.30759958 325.70168113 -510.5234375 311.234375 C-509.45727871 307.99255885 -508.53833755 304.72551518 -507.625 301.4375 C-504.73596455 291.24625684 -501.40043576 281.18680075 -497.5625 271.3125 C-497.19382812 270.34054687 -496.82515625 269.36859375 -496.4453125 268.3671875 C-489.43499001 249.94876258 -480.98328845 232.59728939 -471.5625 215.3125 C-471.21606445 214.67344727 -470.86962891 214.03439453 -470.51269531 213.37597656 C-465.07382456 203.37900371 -459.15095666 193.77845164 -452.8671875 184.29150391 C-451.61641413 182.39427918 -450.38374911 180.48656007 -449.15625 178.57421875 C-448.4446875 177.47722656 -447.733125 176.38023437 -447 175.25 C-446.06994141 173.80947266 -446.06994141 173.80947266 -445.12109375 172.33984375 C-444.60675781 171.67082031 -444.09242187 171.00179688 -443.5625 170.3125 C-442.9025 170.3125 -442.2425 170.3125 -441.5625 170.3125 C-441.27375 169.549375 -440.985 168.78625 -440.6875 168 C-439.5625 165.3125 -439.5625 165.3125 -437.5625 162.3125 C-436.9025 162.3125 -436.2425 162.3125 -435.5625 162.3125 C-435.5625 161.6525 -435.5625 160.9925 -435.5625 160.3125 C-434.9025 160.3125 -434.2425 160.3125 -433.5625 160.3125 C-433.19125 159.508125 -433.19125 159.508125 -432.8125 158.6875 C-431.25597463 155.7301018 -429.52814327 153.01525949 -427.5625 150.3125 C-426.9025 150.3125 -426.2425 150.3125 -425.5625 150.3125 C-425.2325 148.9925 -424.9025 147.6725 -424.5625 146.3125 C-423.9025 146.3125 -423.2425 146.3125 -422.5625 146.3125 C-422.3046875 145.72597656 -422.046875 145.13945313 -421.78125 144.53515625 C-420.46743528 142.13912877 -419.0406599 140.62338448 -417.0625 138.75 C-414.84153267 136.63725777 -413.28507583 134.89636374 -411.5625 132.3125 C-410.9025 132.3125 -410.2425 132.3125 -409.5625 132.3125 C-409.315 131.735 -409.0675 131.1575 -408.8125 130.5625 C-407.37950012 127.98310021 -405.77825324 126.25128408 -403.5625 124.3125 C-402.9025 124.3125 -402.2425 124.3125 -401.5625 124.3125 C-401.19125 123.44625 -401.19125 123.44625 -400.8125 122.5625 C-399.37950012 119.98310021 -397.77825324 118.25128408 -395.5625 116.3125 C-394.9025 116.3125 -394.2425 116.3125 -393.5625 116.3125 C-393.5625 115.6525 -393.5625 114.9925 -393.5625 114.3125 C-392.09375 112.83203125 -392.09375 112.83203125 -390.0625 111.125 C-386.38857068 108.01327339 -382.7938696 104.83097245 -379.2265625 101.59765625 C-377.5625 100.3125 -377.5625 100.3125 -375.5625 100.3125 C-375.5625 99.6525 -375.5625 98.9925 -375.5625 98.3125 C-372.10096154 95.3125 -372.10096154 95.3125 -369.5625 95.3125 C-369.5625 94.6525 -369.5625 93.9925 -369.5625 93.3125 C-367.5825 92.6525 -365.6025 91.9925 -363.5625 91.3125 C-363.5625 90.6525 -363.5625 89.9925 -363.5625 89.3125 C-362.9025 89.3125 -362.2425 89.3125 -361.5625 89.3125 C-361.5625 88.6525 -361.5625 87.9925 -361.5625 87.3125 C-356.15073529 83.3125 -356.15073529 83.3125 -353.5625 83.3125 C-353.5625 82.6525 -353.5625 81.9925 -353.5625 81.3125 C-351.34161754 79.69434366 -349.13479862 78.20834824 -346.8125 76.75 C-346.17828125 76.33814453 -345.5440625 75.92628906 -344.890625 75.50195312 C-341.80728007 73.53953255 -339.13335342 72.06351282 -335.5625 71.3125 C-335.5625 70.6525 -335.5625 69.9925 -335.5625 69.3125 C-333.5825 68.6525 -331.6025 67.9925 -329.5625 67.3125 C-329.5625 66.6525 -329.5625 65.9925 -329.5625 65.3125 C-324.76959701 61.522124 -318.92296341 58.80323662 -313.5546875 55.92578125 C-311.46475928 54.79896616 -309.3874678 53.64853602 -307.3203125 52.48046875 C-300.87028357 48.87604082 -294.76711802 46.02014084 -287.5625 44.3125 C-287.5625 43.6525 -287.5625 42.9925 -287.5625 42.3125 C-286.86125 42.07015625 -286.16 41.8278125 -285.4375 41.578125 C-280.84473459 39.9556807 -276.38488066 38.32046005 -272.0625 36.0625 C-268.5625 34.3125 -268.5625 34.3125 -265.5625 34.3125 C-265.5625 33.6525 -265.5625 32.9925 -265.5625 32.3125 C-262.9225 31.9825 -260.2825 31.6525 -257.5625 31.3125 C-257.5625 30.6525 -257.5625 29.9925 -257.5625 29.3125 C-253.6025 28.8175 -253.6025 28.8175 -249.5625 28.3125 C-249.5625 27.6525 -249.5625 26.9925 -249.5625 26.3125 C-248.86125 26.13074219 -248.16 25.94898438 -247.4375 25.76171875 C-242.93064349 24.56764671 -238.51676307 23.36665756 -234.1875 21.625 C-230.96138527 20.45692398 -228.92988802 19.99680737 -225.5625 20.3125 C-225.5625 19.6525 -225.5625 18.9925 -225.5625 18.3125 C-208.765625 14.11328125 -208.765625 14.11328125 -205.37988281 13.2734375 C-202.58765145 12.57055808 -199.80250615 11.85135589 -197.01855469 11.1171875 C-184.87054855 7.94597024 -172.71861712 5.5941292 -160.3125 3.6875 C-159.3516449 3.53908661 -158.39078979 3.39067322 -157.40081787 3.23776245 C-150.79345848 2.22384663 -144.17998263 1.25778596 -137.5625 0.3125 C-136.84703003 0.20790466 -136.13156006 0.10330933 -135.39440918 -0.00445557 C-91.80534586 -6.3570854 -43.61290559 -5.10824003 0 0 Z " fill="#020202" transform="translate(1809.5625,899.6875)"/>
<path d="M0 0 C79.756875 -0.061875 79.756875 -0.061875 161.125 -0.125 C177.89199707 -0.14320801 194.65899414 -0.16141602 211.93408203 -0.18017578 C232.46459961 -0.18920898 232.46459961 -0.18920898 242.0866394 -0.19088745 C248.78318704 -0.19274498 255.47970092 -0.20004918 262.17623901 -0.21115112 C269.91592828 -0.22396329 277.65558543 -0.22965302 285.39528536 -0.2268899 C289.34681349 -0.2256951 293.29827001 -0.22746814 297.24978471 -0.23843026 C319.43651421 -0.29692324 341.25601742 0.18301007 363 5 C364.89878906 5.41378906 364.89878906 5.41378906 366.8359375 5.8359375 C383.01151961 9.53118639 398.38372246 15.16846668 413 23 C414.60875 23.77923828 414.60875 23.77923828 416.25 24.57421875 C419.10760854 26.05579136 420.77958895 27.70557524 423 30 C425.13309192 31.23512079 425.13309192 31.23512079 427 32 C427 32.66 427 33.32 427 34 C427.5878125 34.27972656 428.175625 34.55945313 428.78125 34.84765625 C435.00330412 38.07918084 440.20158746 42.9554207 445.375 47.625 C445.89900391 48.09220459 446.42300781 48.55940918 446.96289062 49.04077148 C449.66144007 51.5145884 451.53307791 53.65222236 453 57 C453.7425 57.721875 454.485 58.44375 455.25 59.1875 C464 68.13636364 464 68.13636364 464 73 C464.66 73 465.32 73 466 73 C466.50789063 74.01578125 467.01578125 75.0315625 467.5390625 76.078125 C467.8693042 76.73820557 468.1995459 77.39828613 468.53979492 78.07836914 C469.27042365 79.54044844 469.99972842 81.00319002 470.7277832 82.46655273 C472.35339516 85.73026762 473.99036243 88.98172646 475.69140625 92.20703125 C482.14986025 104.5337411 485.70770238 117.32168086 488 131 C488.13680176 131.77053711 488.27360352 132.54107422 488.41455078 133.33496094 C492.32049161 155.60807107 492.19690106 178.03275606 487.75 200.2109375 C487.12164152 203.38545693 486.57794762 206.55606567 486.0625 209.75 C484.57791506 217.90908253 481.91183361 225.62556068 478 232.9296875 C476.78050487 235.45442352 475.9055011 238.03466476 475 240.6875 C473.54833056 244.83104466 471.92627195 247.68355846 469 251 C468.70738281 251.76054688 468.41476562 252.52109375 468.11328125 253.3046875 C466.8623691 256.33321166 465.26735251 258.62304692 463.3125 261.25 C462.24515625 262.68666016 462.24515625 262.68666016 461.15625 264.15234375 C458.14214866 268.13292324 455.10408587 272.08915914 452 276 C451.195625 277.03125 450.39125 278.0625 449.5625 279.125 C445.33062826 283.87295366 440.84379732 288.34491169 435 291 C435 291.66 435 292.32 435 293 C429.58823529 297 429.58823529 297 427 297 C427 297.66 427 298.32 427 299 C424.4453125 300.7265625 424.4453125 300.7265625 421.125 302.625 C420.03445313 303.25664063 418.94390625 303.88828125 417.8203125 304.5390625 C415 306 415 306 413 306 C413 306.66 413 307.32 413 308 C398.71518974 315.45768296 383.53618957 321.28658233 367.8125 324.875 C366.64315918 325.14280273 366.64315918 325.14280273 365.45019531 325.41601562 C362.64283669 326.00929431 359.82614194 326.50270142 357 327 C356.04931513 327.17922829 356.04931513 327.17922829 355.0794245 327.36207736 C338.49134211 330.42725654 321.95460251 330.41574974 305.1561774 330.34819686 C301.04812491 330.33506485 296.94008361 330.33963789 292.83201599 330.34190369 C285.73925531 330.34346574 278.64657835 330.33416944 271.55383873 330.31719017 C261.29933591 330.29265815 251.04487296 330.28498049 240.79034398 330.2812262 C224.14723445 330.2746838 207.5041694 330.25478315 190.86108398 330.22631836 C174.70776588 330.19872019 158.55445997 330.17754936 142.40112305 330.16479492 C141.39286998 330.16399093 140.38461691 330.16318694 139.34581071 330.16235858 C131.45891354 330.15611917 123.5720161 330.1502488 115.68511856 330.14449489 C77.12337153 330.11626785 38.56173603 330.05589557 0 330 C0 221.1 0 112.2 0 0 Z " fill="#FEFEFE" transform="translate(429,825)"/>
<path d="M0 0 C3.06712066 -0.0021703 6.13387115 -0.02033312 9.20092773 -0.03930664 C26.5611713 -0.09039161 43.75300297 0.75239423 60.73022461 4.62280273 C61.73690186 4.84307129 62.7435791 5.06333984 63.78076172 5.2902832 C66.579845 5.90786484 69.3742302 6.54299123 72.16772461 7.18530273 C73.21186523 7.41999268 73.21186523 7.41999268 74.27709961 7.65942383 C80.23215374 9.00344646 85.57715533 10.70060527 91.16772461 13.18530273 C92.70492984 13.63822927 94.24716519 14.07426001 95.79272461 14.49780273 C105.73375947 17.38342228 114.9763014 22.49622453 124.16772461 27.18530273 C124.16772461 27.84530273 124.16772461 28.50530273 124.16772461 29.18530273 C125.03397461 29.43280273 125.90022461 29.68030273 126.79272461 29.93530273 C130.37832525 31.26330297 133.13100448 32.87161121 136.16772461 35.18530273 C136.16772461 35.84530273 136.16772461 36.50530273 136.16772461 37.18530273 C137.03397461 37.61842773 137.03397461 37.61842773 137.91772461 38.06030273 C139.03147461 38.61717773 139.03147461 38.61717773 140.16772461 39.18530273 C140.80709961 39.45342773 141.44647461 39.72155273 142.10522461 39.99780273 C144.33310435 41.28052137 145.89831194 42.86038898 147.68945312 44.68505859 C149.28787392 46.30723792 150.91305479 47.8992256 152.54272461 49.48999023 C153.75113719 50.68001393 154.95946917 51.87011949 156.16772461 53.06030273 C156.77100586 53.64682617 157.37428711 54.23334961 157.99584961 54.83764648 C161.89245694 58.69189939 165.18069182 62.58029386 168.16772461 67.18530273 C168.16772461 67.84530273 168.16772461 68.50530273 168.16772461 69.18530273 C168.82772461 69.18530273 169.48772461 69.18530273 170.16772461 69.18530273 C176.31487674 79.95209372 182.14107123 90.42815447 186.16772461 102.18530273 C186.76872396 103.68657458 187.37247806 105.1867496 187.98022461 106.68530273 C189.16772461 110.18530273 189.16772461 110.18530273 189.16772461 115.18530273 C62.77772461 115.18530273 -63.61227539 115.18530273 -193.83227539 115.18530273 C-190.83227539 105.18530273 -190.83227539 105.18530273 -187.83227539 101.18530273 C-187.17082056 99.56473841 -186.50975154 97.944014 -185.85180664 96.32202148 C-183.13306192 90.62411588 -179.32801556 85.42891299 -175.83227539 80.18530273 C-175.17227539 80.18530273 -174.51227539 80.18530273 -173.83227539 80.18530273 C-173.58477539 79.46342773 -173.33727539 78.74155273 -173.08227539 77.99780273 C-171.68483775 74.85356805 -170.07958996 72.79704669 -167.83227539 70.18530273 C-167.37208008 69.63358398 -166.91188477 69.08186523 -166.43774414 68.51342773 C-162.68963437 64.09959531 -158.70982334 59.93030045 -154.64477539 55.81030273 C-154.13366211 55.28621826 -153.62254883 54.76213379 -153.09594727 54.22216797 C-150.47064401 51.59043015 -148.13435808 49.81318318 -144.83227539 48.18530273 C-144.09235352 47.44151367 -143.35243164 46.69772461 -142.59008789 45.93139648 C-139.22883749 42.58442902 -135.58823327 39.95702064 -131.70727539 37.24780273 C-130.95244873 36.71856201 -130.19762207 36.18932129 -129.41992188 35.64404297 C-123.75829359 31.72315232 -117.99923014 28.25905305 -111.83227539 25.18530273 C-110.99438477 24.73670898 -110.15649414 24.28811523 -109.29321289 23.82592773 C-104.44279236 21.27307482 -99.77005992 19.39114833 -94.44946289 18.05639648 C-92.15054661 17.2912348 -90.24313069 16.39995612 -88.10571289 15.28295898 C-83.73203643 13.04506219 -79.28875195 11.56349408 -74.58227539 10.18530273 C-73.72182617 9.93039062 -72.86137695 9.67547852 -71.97485352 9.4128418 C-62.70746482 6.74434534 -53.31784521 4.88437106 -43.83227539 3.18530273 C-42.09977539 2.86239258 -42.09977539 2.86239258 -40.33227539 2.53295898 C-26.92776659 0.1417901 -13.57586893 -0.00107057 0 0 Z " fill="#FDFDFD" transform="translate(1743.832275390625,1121.814697265625)"/>
<path d="M0 0 C59.4 0 118.8 0 180 0 C180 0.33 180 0.66 180 1 C120.93 1 61.86 1 1 1 C1.05800781 27.43480469 1.11601562 53.86960937 1.17578125 81.10546875 C1.20131543 97.80794433 1.22562115 114.51040798 1.24414062 131.21289062 C1.25393038 139.98348029 1.2640329 148.75406951 1.2746582 157.5246582 C1.27663632 159.1735938 1.27663632 159.1735938 1.2786544 160.85584122 C1.30041655 178.61621061 1.33984419 196.37649927 1.38576398 214.13682076 C1.43247828 232.3560298 1.46028475 250.5751965 1.47044247 268.79446298 C1.47731207 280.04188955 1.49902932 291.28908807 1.53958233 302.53644446 C1.56595865 310.24325729 1.5740126 317.94995177 1.56750689 325.65680649 C1.56429602 330.10709305 1.56930828 334.55698038 1.59602737 339.00719643 C1.62029791 343.07921814 1.62162846 347.15057088 1.60449447 351.22262291 C1.60237582 352.69781648 1.60877143 354.17305121 1.62441591 355.64816334 C1.64441421 357.64973994 1.63070575 359.65156909 1.61523914 361.65318584 C1.61713775 362.76614613 1.61903635 363.87910642 1.62099248 365.02579278 C0.79580658 368.97797246 -1.01249484 370.36349101 -4 373 C-5.16117567 374.3672239 -6.30830252 375.74654357 -7.43887234 377.13918209 C-13.48069959 384.17566124 -19.03369033 390.63381681 -28.61214364 391.88880837 C-33.37408097 392.16613946 -38.08500527 392.08163502 -42.84985352 391.92993164 C-44.99026096 391.92512496 -47.13069635 391.92785038 -49.27108765 391.93745422 C-55.03067644 391.94229387 -60.78413545 391.84301446 -66.54231 391.72369695 C-72.57841452 391.61676038 -78.61469044 391.60738737 -84.65159607 391.58726501 C-96.05985551 391.53461737 -107.46531527 391.39538476 -118.87234682 391.22432369 C-131.86846887 391.03370157 -144.86473116 390.94068783 -157.86190522 390.85550129 C-184.57615022 390.67824202 -211.28791763 390.37960931 -238 390 C-237.67 389.01 -237.34 388.02 -237 387 C-235.33572149 387.00056554 -235.33572149 387.00056554 -233.6378212 387.0011425 C-206.66463743 387.00894002 -179.69165476 386.98241713 -152.71854019 386.9197216 C-139.67462218 386.89020068 -126.63086748 386.87191045 -113.58691406 386.87988281 C-102.22032854 386.88680168 -90.85399562 386.87282834 -79.4874723 386.83356392 C-73.46660311 386.8135005 -67.44613088 386.80403696 -61.42523956 386.81957626 C-55.76158781 386.83386388 -50.09869611 386.82028127 -44.43514252 386.78504753 C-42.35341244 386.77705955 -40.27161422 386.77937407 -38.18991089 386.79260826 C-35.35276846 386.80912398 -32.51819527 386.78899963 -29.68121338 386.75949097 C-28.85241991 386.77307707 -28.02362645 386.78666317 -27.16971803 386.80066097 C-24.58628757 386.81411541 -24.58628757 386.81411541 -21 386 C-18.58135841 383.18080913 -18.58135841 383.18080913 -17 380 C-15.01231606 378.64837492 -13.0133653 377.31306433 -11 376 C-9.73195434 373.9664052 -9.73195434 373.9664052 -9 372 C-8.34 371.34 -7.68 370.68 -7 370 C-6.01 370 -5.02 370 -4 370 C-4 368.35 -4 366.7 -4 365 C-2.68 364.67 -1.36 364.34 0 364 C0 243.88 0 123.76 0 0 Z " fill="#383838" transform="translate(429,1398)"/>
<path d="M0 0 C38.28 0 76.56 0 116 0 C116.495 0.99 116.495 0.99 117 2 C159.57 2.495 159.57 2.495 203 3 C203 3.33 203 3.66 203 4 C134.36 4 65.72 4 -5 4 C-5 3.67 -5 3.34 -5 3 C-3.02 2.67 -1.04 2.34 1 2 C0.67 1.34 0.34 0.68 0 0 Z " fill="#BDBDBD" transform="translate(191,572)"/>
<path d="M0 0 C0 0.33 0 0.66 0 1 C11.55 1.33 23.1 1.66 35 2 C32 5 32 5 30.04475403 5.36076355 C28.93555855 5.3507708 28.93555855 5.3507708 27.80395508 5.34057617 C26.96331009 5.34034958 26.1226651 5.34012299 25.25654602 5.33988953 C24.35333115 5.32440567 23.45011627 5.30892181 22.51953125 5.29296875 C21.59154221 5.28872391 20.66355316 5.28447906 19.70744324 5.28010559 C16.74216757 5.26330662 13.7775704 5.22565216 10.8125 5.1875 C8.80274419 5.17245474 6.79297773 5.15876606 4.78320312 5.14648438 C-0.14479286 5.11339908 -5.07228138 5.06160833 -10 5 C-9.34 4.01 -8.68 3.02 -8 2 C-14.435 2.495 -14.435 2.495 -21 3 C-21 3.33 -21 3.66 -21 4 C-21.763125 4.144375 -22.52625 4.28875 -23.3125 4.4375 C-26.08172908 4.9632594 -26.08172908 4.9632594 -29 6 C-30.9375 5.984375 -30.9375 5.984375 -33 5.75 C-34.0209375 5.64945313 -34.0209375 5.64945313 -35.0625 5.546875 C-37.41824897 4.88194586 -38.42358391 3.8325837 -40 2 C-26.60390033 0.28529924 -13.50040145 -0.24179823 0 0 Z " fill="#0B0B0B" transform="translate(1725,897)"/>
<path d="M0 0 C38.28 0 76.56 0 116 0 C116.495 1.485 116.495 1.485 117 3 C113.04 3 109.08 3 105 3 C105 2.67 105 2.34 105 2 C70.35 1.67 35.7 1.34 0 1 C0 0.67 0 0.34 0 0 Z " fill="#F4F4F4" transform="translate(191,572)"/>
<path d="M0 0 C10.56 0 21.12 0 32 0 C27.61555651 3.28833262 26.69979315 3.36408809 21.484375 3.29296875 C20.23398437 3.28330078 18.98359375 3.27363281 17.6953125 3.26367188 C16.39335938 3.23853516 15.09140625 3.21339844 13.75 3.1875 C12.43257812 3.17396484 11.11515625 3.16042969 9.7578125 3.14648438 C6.50479679 3.11112551 3.252604 3.06177033 0 3 C0 2.01 0 1.02 0 0 Z " fill="#F7F7F7" transform="translate(720,572)"/>
<path d="M0 0 C3.85913184 1.51608751 5.45507368 3.80066405 8 7 C10.26749444 9.08139338 12.6172185 11.05227692 15 13 C11.25 16 11.25 16 9 16 C7 11.25 7 11.25 7 9 C6.030625 8.87625 5.06125 8.7525 4.0625 8.625 C3.051875 8.41875 2.04125 8.2125 1 8 C0.67 7.34 0.34 6.68 0 6 C-0.99 5.34 -1.98 4.68 -3 4 C-2.01 2.68 -1.02 1.36 0 0 Z " fill="#121212" transform="translate(1996,1512)"/>
<path d="M0 0 C1.38407136 3.96629405 0.92283774 7.88983924 0.625 12 C0.58117188 12.7115625 0.53734375 13.423125 0.4921875 14.15625 C0.26554587 17.53069203 -0.00365349 20.75765205 -1 24 C-1.66 24 -2.32 24 -3 24 C-2.67 20.37 -2.34 16.74 -2 13 C-2.66 14.32 -3.32 15.64 -4 17 C-4.33 13.7 -4.66 10.4 -5 7 C-4.34 6.67 -3.68 6.34 -3 6 C-1.95191959 4.02477154 -0.9479589 2.02518491 0 0 Z " fill="#1C1C1C" transform="translate(1182,1028)"/>
<path d="M0 0 C0 0.33 0 0.66 0 1 C-4.29 1.66 -8.58 2.32 -13 3 C-13 3.33 -13 3.66 -13 4 C-13.763125 4.144375 -14.52625 4.28875 -15.3125 4.4375 C-18.08172908 4.9632594 -18.08172908 4.9632594 -21 6 C-22.9375 5.984375 -22.9375 5.984375 -25 5.75 C-26.0209375 5.64945313 -26.0209375 5.64945313 -27.0625 5.546875 C-29.42550356 4.87989819 -30.34206074 3.7624411 -32 2 C-21.28712612 0.73300752 -10.8029818 -0.34910893 0 0 Z " fill="#2E2E2E" transform="translate(1717,897)"/>
<path d="M0 0 C2 1 2 1 3 3 C0.78342876 4.70666987 -1.44570405 6.38955137 -3.6875 8.0625 C-4.31333984 8.54783203 -4.93917969 9.03316406 -5.58398438 9.53320312 C-10.33817272 13.04283955 -10.33817272 13.04283955 -13.95703125 12.80859375 C-14.63121094 12.54175781 -15.30539062 12.27492188 -16 12 C-13.31158141 9.74754119 -11.35358125 8.11786042 -8 7 C-6.31237149 5.3545622 -4.6459651 3.68711423 -3 2 C-2.01 1.34 -1.02 0.68 0 0 Z " fill="#111111" transform="translate(1617,1152)"/>
<path d="M0 0 C0 1.32 0 2.64 0 4 C-1.85625 4.61875 -1.85625 4.61875 -3.75 5.25 C-7.33491436 6.5800919 -9.46715938 8.07749159 -12 11 C-12.99 11.495 -12.99 11.495 -14 12 C-14 12.66 -14 13.32 -14 14 C-16.97 13.505 -16.97 13.505 -20 13 C-19.34 12.67 -18.68 12.34 -18 12 C-18 11.34 -18 10.68 -18 10 C-8.58997722 4.62870159 -8.58997722 4.62870159 -4 3 C-4 2.34 -4 1.68 -4 1 C-2 0 -2 0 0 0 Z " fill="#2E2E2E" transform="translate(860,1121)"/>
<path d="M0 0 C4.33333333 4.33333333 8.66666667 8.66666667 13 13 C11.02 13.99 11.02 13.99 9 15 C8.34 13.68 7.68 12.36 7 11 C6.34 11 5.68 11 5 11 C5 10.34 5 9.68 5 9 C4.01 9 3.02 9 2 9 C1.34 6.03 0.68 3.06 0 0 Z " fill="#1E1E1E" transform="translate(987,1454)"/>
<path d="M0 0 C16.8929385 0.96355353 16.8929385 0.96355353 24 2 C24 2.99 24 3.98 24 5 C21.39491364 4.88608368 18.79154454 4.75934452 16.1875 4.625 C15.44951172 4.5940625 14.71152344 4.563125 13.95117188 4.53125 C10.18106885 4.32653852 8.20349259 4.13566173 5 2 C3.34450469 1.61500109 1.6777567 1.27206865 0 1 C0 0.67 0 0.34 0 0 Z " fill="#282828" transform="translate(1784,898)"/>
<path d="M0 0 C0.59167969 0.33773437 1.18335938 0.67546875 1.79296875 1.0234375 C5.78450953 3.27641158 9.66558593 5.4619821 14 7 C13.67 7.66 13.34 8.32 13 9 C7.36529617 9.5497272 4.61012242 7.95047835 0 5 C0 3.35 0 1.7 0 0 Z " fill="#181818" transform="translate(992,639)"/>
<path d="M0 0 C0 0.66 0 1.32 0 2 C0.99 2.33 1.98 2.66 3 3 C-1.53701494 4.45184478 -5.18061476 5.23509196 -10 5 C-10 4.34 -10 3.68 -10 3 C-11.32 2.67 -12.64 2.34 -14 2 C-12.4176994 1.66179834 -10.83410625 1.32964061 -9.25 1 C-8.36828125 0.814375 -7.4865625 0.62875 -6.578125 0.4375 C-4 0 -4 0 0 0 Z " fill="#090909" transform="translate(1838,1571)"/>
<path d="M0 0 C1.04005702 3.38018531 1.08004482 6.4780279 1 10 C0.01 10 -0.98 10 -2 10 C-3.65 7.03 -5.3 4.06 -7 1 C-4.53721199 -0.231394 -2.7204945 -0.07159196 0 0 Z " fill="#151515" transform="translate(895,888)"/>
<path d="M0 0 C1.32 0 2.64 0 4 0 C4.6708712 1.6232687 5.33657029 3.24867578 6 4.875 C6.556875 6.23238281 6.556875 6.23238281 7.125 7.6171875 C8 10 8 10 8 12 C7.34 12 6.68 12 6 12 C5.67 12.66 5.34 13.32 5 14 C4.35089846 12.41800369 3.70585306 10.83434276 3.0625 9.25 C2.70285156 8.36828125 2.34320312 7.4865625 1.97265625 6.578125 C1.14643424 4.38813896 0.50630057 2.28101729 0 0 Z " fill="#131313" transform="translate(1320,1552)"/>
<path d="M0 0 C0.66 0.33 1.32 0.66 2 1 C0.625 3 0.625 3 -1 5 C-1.66 5 -2.32 5 -3 5 C-3 5.66 -3 6.32 -3 7 C-4.98 7.33 -6.96 7.66 -9 8 C-9 7.34 -9 6.68 -9 6 C-9.66 5.67 -10.32 5.34 -11 5 C-9.21289414 4.13633178 -7.4201535 3.28431406 -5.625 2.4375 C-4.62726563 1.96183594 -3.62953125 1.48617188 -2.6015625 0.99609375 C-1.74304687 0.66738281 -0.88453125 0.33867188 0 0 Z " fill="#151515" transform="translate(1915,1543)"/>
<path d="M0 0 C-1.485 1.485 -1.485 1.485 -3 3 C-3.33 2.67 -3.66 2.34 -4 2 C-4.33 2.99 -4.66 3.98 -5 5 C-4.01 5.33 -3.02 5.66 -2 6 C-3.98 6.33 -5.96 6.66 -8 7 C-8 6.34 -8 5.68 -8 5 C-10.97 4.505 -10.97 4.505 -14 4 C-11.36711169 2.57385216 -8.65544851 1.41456868 -5.875 0.3125 C-5.19179688 0.04050781 -4.50859375 -0.23148438 -3.8046875 -0.51171875 C-2 -1 -2 -1 0 0 Z " fill="#202020" transform="translate(818,1144)"/>
<path d="M0 0 C2.64 0.66 5.28 1.32 8 2 C7.01 2.495 7.01 2.495 6 3 C6 3.66 6 4.32 6 5 C6.969375 5.12375 7.93875 5.2475 8.9375 5.375 C10.4534375 5.684375 10.4534375 5.684375 12 6 C12.33 6.66 12.66 7.32 13 8 C11.14375 7.3503125 11.14375 7.3503125 9.25 6.6875 C3.58302782 4.78947104 -2.19021215 3.38609152 -8 2 C-4.90279155 1.12159004 -3.09354597 1.00564594 0 2 C0 1.34 0 0.68 0 0 Z " fill="#313131" transform="translate(1824,1128)"/>
<path d="M0 0 C0.33 1.32 0.66 2.64 1 4 C1.66 4 2.32 4 3 4 C3.33 5.98 3.66 7.96 4 10 C3.34 10 2.68 10 2 10 C1.67 10.66 1.34 11.32 1 12 C1 11.34 1 10.68 1 10 C0.34 10 -0.32 10 -1 10 C-1.66 7.03 -2.32 4.06 -3 1 C-2.01 1.33 -1.02 1.66 0 2 C0 1.34 0 0.68 0 0 Z " fill="#0D0D0D" transform="translate(1315,1532)"/>
<path d="M0 0 C2.3125 0.4375 2.3125 0.4375 5 2 C6.36075884 4.90755893 7.21362959 7.89287788 8 11 C6.68 10.67 5.36 10.34 4 10 C3.67 8.68 3.34 7.36 3 6 C2.34 6 1.68 6 1 6 C0.67 4.02 0.34 2.04 0 0 Z " fill="#090909" transform="translate(1144,810)"/>
<path d="M0 0 C3.04386724 -0.08226668 5.07175348 0.02391783 8 1 C8 3.31 8 5.62 8 8 C7.01 8 6.02 8 5 8 C5 7.34 5 6.68 5 6 C4.34 6 3.68 6 3 6 C2.01 4.02 1.02 2.04 0 0 Z " fill="#171717" transform="translate(1360,1626)"/>
<path d="M0 0 C0.99 0 1.98 0 3 0 C3 7.92 3 15.84 3 24 C2.67 24 2.34 24 2 24 C2 18.72 2 13.44 2 8 C1.34 8 0.68 8 0 8 C0 5.36 0 2.72 0 0 Z " fill="#474747" transform="translate(2179,1360)"/>
<path d="M0 0 C0.66 0 1.32 0 2 0 C1.65310493 5.37687366 1.65310493 5.37687366 1 8 C-1.52236045 10.01788836 -2.75096951 10 -6 10 C-6 9.34 -6 8.68 -6 8 C-5.34 8 -4.68 8 -4 8 C-3.71125 7.236875 -3.4225 6.47375 -3.125 5.6875 C-2 3 -2 3 0 0 Z " fill="#1A1A1A" transform="translate(1372,1062)"/>
<path d="M0 0 C0.66 0.33 1.32 0.66 2 1 C1.42655063 3.86724686 1.1385485 4.8614515 -1 7 C-3.9375 7.125 -3.9375 7.125 -7 7 C-7.99 7 -8.98 7 -10 7 C-6.7 4.69 -3.4 2.38 0 0 Z " fill="#2F2F2F" transform="translate(1940,1528)"/>
<path d="M0 0 C0.66 0.99 1.32 1.98 2 3 C1.21625 3.7425 0.4325 4.485 -0.375 5.25 C-2.56504531 7.54433318 -3.82731386 9.12158858 -5 12 C-6.32 11.34 -7.64 10.68 -9 10 C-6.19195732 7.03595495 -3.81684226 4.55500981 0 3 C0 2.01 0 1.02 0 0 Z " fill="#D0D0D0" transform="translate(2140,1653)"/>
<path d="M0 0 C3.36720387 1.39332574 4.9859524 2.9789286 7 6 C5.02 6.66 3.04 7.32 1 8 C-1.125 3.375 -1.125 3.375 0 0 Z " fill="#1D1D1D" transform="translate(2004,1520)"/>
<path d="M0 0 C2.97 0.495 2.97 0.495 6 1 C6.33 2.98 6.66 4.96 7 7 C8.32 7.33 9.64 7.66 11 8 C10.01 9.485 10.01 9.485 9 11 C7.87278564 9.73113036 6.74831342 8.45982438 5.625 7.1875 C4.99851562 6.47980469 4.37203125 5.77210937 3.7265625 5.04296875 C2 3 2 3 0 0 Z " fill="#1C1C1C" transform="translate(861,1688)"/>
<path d="M0 0 C0.86882812 -0.02578125 1.73765625 -0.0515625 2.6328125 -0.078125 C3.74269531 0.08429688 3.74269531 0.08429688 4.875 0.25 C5.535 1.24 6.195 2.23 6.875 3.25 C4.77111431 3.30402274 2.66683286 3.34280256 0.5625 3.375 C-1.19513672 3.40980469 -1.19513672 3.40980469 -2.98828125 3.4453125 C-6.125 3.25 -6.125 3.25 -9.125 1.25 C-6.04344479 0.36136547 -3.20456404 0.05739518 0 0 Z " fill="#111111" transform="translate(1726.125,1578.75)"/>
<path d="M0 0 C0.99 0.495 0.99 0.495 2 1 C2 1.66 2 2.32 2 3 C2.639375 3.268125 3.27875 3.53625 3.9375 3.8125 C6 5 6 5 7 8 C6.34 8 5.68 8 5 8 C4.67 8.66 4.34 9.32 4 10 C4 9.01 4 8.02 4 7 C2.68 6.67 1.36 6.34 0 6 C0 4.02 0 2.04 0 0 Z " fill="#282828" transform="translate(1057,1533)"/>
<path d="M0 0 C3.28220895 1.64110448 3.74570789 4.69322988 5 8 C5 8.99 5 9.98 5 11 C4.34 11 3.68 11 3 11 C2.67 11.66 2.34 12.32 2 13 C0.54815522 8.46298506 -0.23509196 4.81938524 0 0 Z " fill="#181818" transform="translate(1297,1480)"/>
<path d="M0 0 C5.75 1.875 5.75 1.875 8 3 C8 3.99 8 4.98 8 6 C1.47692308 5.38461538 1.47692308 5.38461538 -0.9375 3.4375 C-1.288125 2.963125 -1.63875 2.48875 -2 2 C-1.34 2 -0.68 2 0 2 C0 1.34 0 0.68 0 0 Z " fill="#0F0F0F" transform="translate(930,609)"/>
<path d="M0 0 C3.3 0 6.6 0 10 0 C10 0.99 10 1.98 10 3 C7.35261084 4.4606285 6.10551666 5 3 5 C2.87625 4.360625 2.7525 3.72125 2.625 3.0625 C2.315625 2.0415625 2.315625 2.0415625 2 1 C1.34 0.67 0.68 0.34 0 0 Z " fill="#151515" transform="translate(1936,1776)"/>
<path d="M0 0 C-0.66 1.32 -1.32 2.64 -2 4 C-3.918125 3.8453125 -3.918125 3.8453125 -5.875 3.6875 C-6.95394531 3.60048828 -6.95394531 3.60048828 -8.0546875 3.51171875 C-10 3 -10 3 -12 0 C-3.42857143 -1.28571429 -3.42857143 -1.28571429 0 0 Z " fill="#1A1A1A" transform="translate(1804,1578)"/>
<path d="M0 0 C2.875 0.3125 2.875 0.3125 6 1 C6.66 1.99 7.32 2.98 8 4 C4.7 4.66 1.4 5.32 -2 6 C-1.67 5.195625 -1.34 4.39125 -1 3.5625 C0.06059041 1.30318875 0.06059041 1.30318875 0 0 Z " fill="#252525" transform="translate(1904,1786)"/>
<path d="M0 0 C0 1.32 0 2.64 0 4 C-0.99 4.66 -1.98 5.32 -3 6 C-4.5 4.6875 -4.5 4.6875 -6 3 C-6 2.01 -6 1.02 -6 0 C-3.50907189 -1.24546405 -2.58919267 -0.7767578 0 0 Z " fill="#0D0D0D" transform="translate(877,1697)"/>
<path d="M0 0 C1.32 0 2.64 0 4 0 C4 0.66 4 1.32 4 2 C4.99 2.33 5.98 2.66 7 3 C7.33 3.66 7.66 4.32 8 5 C5.69 5.33 3.38 5.66 1 6 C0.67 4.02 0.34 2.04 0 0 Z " fill="#F6F6F6" transform="translate(1960,1505)"/>
<path d="M0 0 C0.66 0.66 1.32 1.32 2 2 C-1.63 5.63 -5.26 9.26 -9 13 C-9.66 12.67 -10.32 12.34 -11 12 C-10.54109375 11.55269531 -10.0821875 11.10539062 -9.609375 10.64453125 C-6.16447701 7.25029352 -2.92744915 3.86423288 0 0 Z " fill="#C1C1C1" transform="translate(1093,1254)"/>
<path d="M0 0 C0.66 0.33 1.32 0.66 2 1 C2 1.99 2 2.98 2 4 C1.360625 4.12375 0.72125 4.2475 0.0625 4.375 C-0.9584375 4.684375 -0.9584375 4.684375 -2 5 C-2.33 5.66 -2.66 6.32 -3 7 C-4.65 6.67 -6.3 6.34 -8 6 C-5.38485683 3.87961365 -2.80362384 1.86908256 0 0 Z " fill="#363636" transform="translate(1502,952)"/>
<path d="M0 0 C0.66 0.66 1.32 1.32 2 2 C1.72604615 4.00899487 1.38290462 6.00889599 1 8 C0.96296931 9.99965715 0.95239444 12.00056665 1 14 C-1.4056198 10.15100832 -1.71267364 6.45355865 -2 2 C-1.34 1.34 -0.68 0.68 0 0 Z " fill="#2D2D2D" transform="translate(916,942)"/>
<path d="M0 0 C4.75 0.875 4.75 0.875 7 2 C7 2.99 7 3.98 7 5 C7.66 5 8.32 5 9 5 C8.67 5.99 8.34 6.98 8 8 C7.01 7.34 6.02 6.68 5 6 C5 5.34 5 4.68 5 4 C4.360625 3.71125 3.72125 3.4225 3.0625 3.125 C1 2 1 2 0 0 Z " fill="#1E1E1E" transform="translate(920,1756)"/>
<path d="M0 0 C3.3 0.33 6.6 0.66 10 1 C8.02 1.99 8.02 1.99 6 3 C6.33 3.66 6.66 4.32 7 5 C5.02 5.33 3.04 5.66 1 6 C1.20625 5.38125 1.4125 4.7625 1.625 4.125 C1.74875 3.42375 1.8725 2.7225 2 2 C1.34 1.34 0.68 0.68 0 0 Z " fill="#EAEAEA" transform="translate(1855,1560)"/>
<path d="M0 0 C4.75 0.875 4.75 0.875 7 2 C7 2.99 7 3.98 7 5 C7.66 5 8.32 5 9 5 C8.67 5.99 8.34 6.98 8 8 C6.85073734 7.04578192 5.70569459 6.08647955 4.5625 5.125 C3.92441406 4.59132813 3.28632812 4.05765625 2.62890625 3.5078125 C1 2 1 2 0 0 Z " fill="#212121" transform="translate(648,1444)"/>
<path d="M0 0 C0.66 0.33 1.32 0.66 2 1 C1.01 1.33 0.02 1.66 -1 2 C-2.21869929 4.50447516 -2.21869929 4.50447516 -3 7 C-2.34 7.66 -1.68 8.32 -1 9 C-5.75 8.25 -5.75 8.25 -8 6 C-7.34 6 -6.68 6 -6 6 C-6 5.34 -6 4.68 -6 4 C-4.03852126 2.61061923 -2.03833424 1.2739589 0 0 Z " fill="#252525" transform="translate(1454,983)"/>
<path d="M0 0 C0.66 0 1.32 0 2 0 C2 0.99 2 1.98 2 3 C2.99 3.33 3.98 3.66 5 4 C4.67 5.65 4.34 7.3 4 9 C1.4375 6.75 1.4375 6.75 -1 4 C-0.8125 1.6875 -0.8125 1.6875 0 0 Z " fill="#0F0F0F" transform="translate(779,1589)"/>
<path d="M0 0 C0.66 0.33 1.32 0.66 2 1 C0.68775452 4.93673644 -0.91910327 7.22719294 -4 10 C-4.41176754 6.39703406 -4.1535853 5.21597933 -2 2.1875 C-1.34 1.465625 -0.68 0.74375 0 0 Z " fill="#0E0E0E" transform="translate(1100,1241)"/>
<path d="M0 0 C0.66 0.33 1.32 0.66 2 1 C1.01 2.485 1.01 2.485 0 4 C0 4.66 0 5.32 0 6 C-1.32 6.33 -2.64 6.66 -4 7 C-4.66 5.68 -5.32 4.36 -6 3 C-4.03533587 1.93224776 -2.03144641 0.93446535 0 0 Z " fill="#D0D0D0" transform="translate(1640,1143)"/>
<path d="M0 0 C1.65 0 3.3 0 5 0 C5 0.66 5 1.32 5 2 C5.66 2 6.32 2 7 2 C7 2.66 7 3.32 7 4 C7.66 4.33 8.32 4.66 9 5 C8.01 5.66 7.02 6.32 6 7 C4.02 4.69 2.04 2.38 0 0 Z " fill="#202020" transform="translate(928,1765)"/>
<path d="M0 0 C1.875 0.1875 1.875 0.1875 4 1 C5.25 3.5625 5.25 3.5625 6 6 C4.35 6 2.7 6 1 6 C0.67 4.02 0.34 2.04 0 0 Z " fill="#272727" transform="translate(1552,1482)"/>
<path d="M0 0 C-0.7425 0.6496875 -0.7425 0.6496875 -1.5 1.3125 C-3.33218192 2.99740483 -3.33218192 2.99740483 -3 6 C-4.65 5.67 -6.3 5.34 -8 5 C-7.8125 3.125 -7.8125 3.125 -7 1 C-2.66666667 -1.33333333 -2.66666667 -1.33333333 0 0 Z " fill="#D9D9D9" transform="translate(968,1346)"/>
<path d="M0 0 C1.41441874 2.82883747 1.31900332 4.87376745 1 8 C-0.875 9.875 -0.875 9.875 -3 11 C-3.66 11 -4.32 11 -5 11 C-4.731875 10.484375 -4.46375 9.96875 -4.1875 9.4375 C-2.67650593 6.33598585 -1.34427274 3.17737194 0 0 Z " fill="#C8C8C8" transform="translate(1559,1216)"/>
<path d="M0 0 C0.68707555 2.49064888 1 4.37886292 1 7 C-0.98 7.99 -2.96 8.98 -5 10 C-3.84414715 6.08788267 -2.64465038 3.1254959 0 0 Z " fill="#DBDBDB" transform="translate(1132,1200)"/>
<path d="M0 0 C4.62 0.66 9.24 1.32 14 2 C14 2.33 14 2.66 14 3 C12.8553125 3.2165625 12.8553125 3.2165625 11.6875 3.4375 C8.91827092 3.9632594 8.91827092 3.9632594 6 5 C2.8125 3.125 2.8125 3.125 0 1 C0 0.67 0 0.34 0 0 Z " fill="#3B3B3B" transform="translate(842,584)"/>
<path d="M0 0 C1.65 0.33 3.3 0.66 5 1 C5 1.99 5 2.98 5 4 C5.66 4 6.32 4 7 4 C7.33 4.99 7.66 5.98 8 7 C7.1646875 6.566875 7.1646875 6.566875 6.3125 6.125 C3.91505355 4.9586747 1.48403061 3.9660119 -1 3 C-0.67 2.01 -0.34 1.02 0 0 Z " fill="#222222" transform="translate(1507,1752)"/>
<path d="M0 0 C0.66 0.66 1.32 1.32 2 2 C1.875 4 1.875 4 1 6 C-0.9375 7.1875 -0.9375 7.1875 -3 8 C-3.99 8.495 -3.99 8.495 -5 9 C-3.7508258 5.54074837 -2.32472205 2.85306797 0 0 Z " fill="#D1D1D1" transform="translate(1126,1210)"/>
<path d="M0 0 C0.99 0 1.98 0 3 0 C2.25 7.75 2.25 7.75 0 10 C-0.74926071 6.33694766 -1.2380014 3.57644848 0 0 Z " fill="#131313" transform="translate(1300,1208)"/>
<path d="M0 0 C2.97 0.99 5.94 1.98 9 3 C8.01 3.495 8.01 3.495 7 4 C7 4.66 7 5.32 7 6 C5.35 5.67 3.7 5.34 2 5 C2 4.34 2 3.68 2 3 C1.34 2.67 0.68 2.34 0 2 C0 1.34 0 0.68 0 0 Z " fill="#242424" transform="translate(1934,930)"/>
<path d="M0 0 C1.7290774 -0.02725341 3.45828176 -0.04650987 5.1875 -0.0625 C6.15042969 -0.07410156 7.11335938 -0.08570313 8.10546875 -0.09765625 C10.85576513 -0.00486622 13.32479591 0.37888315 16 1 C16 1.33 16 1.66 16 2 C11.545 2.495 11.545 2.495 7 3 C7 2.67 7 2.34 7 2 C4.69 1.67 2.38 1.34 0 1 C0 0.67 0 0.34 0 0 Z " fill="#292929" transform="translate(1821,1803)"/>
<path d="M0 0 C2.31 0 4.62 0 7 0 C6.34 1.65 5.68 3.3 5 5 C2.03 4.505 2.03 4.505 -1 4 C-0.67 2.68 -0.34 1.36 0 0 Z " fill="#0E0E0E" transform="translate(1597,1786)"/>
<path d="M0 0 C0.66 0 1.32 0 2 0 C1.67 6.27 1.34 12.54 1 19 C0.67 19 0.34 19 0 19 C-0.19425873 16.20865148 -0.38069517 13.41716313 -0.5625 10.625 C-0.61857422 9.8309375 -0.67464844 9.036875 -0.73242188 8.21875 C-1.11328125 2.2265625 -1.11328125 2.2265625 0 0 Z " fill="#F4F4F4" transform="translate(1245,1741)"/>
<path d="M0 0 C1.8125 0.125 1.8125 0.125 4 1 C5.75 4.0625 5.75 4.0625 7 7 C6.34 7.66 5.68 8.32 5 9 C1.125 3.375 1.125 3.375 0 0 Z " fill="#242424" transform="translate(1115,1600)"/>
<path d="M0 0 C1.5625 1.125 1.5625 1.125 3 3 C2.6875 6.1875 2.6875 6.1875 2 9 C1.34 8.67 0.68 8.34 0 8 C-0.73075648 5.6859378 -1.40138258 3.35171131 -2 1 C-1.34 0.67 -0.68 0.34 0 0 Z " fill="#262626" transform="translate(1333,1575)"/>
<path d="M0 0 C0.28875 0.598125 0.5775 1.19625 0.875 1.8125 C2.04742026 4.19327792 2.04742026 4.19327792 4 7 C4 7.99 4 8.98 4 10 C2.0625 9.25 2.0625 9.25 0 8 C-1.27677226 5.05360248 -0.96706319 3.00864103 0 0 Z " fill="#212121" transform="translate(1548,1468)"/>
<path d="M0 0 C2.4375 0.875 2.4375 0.875 4.4375 4.875 C1.1375 3.885 -2.1625 2.895 -5.5625 1.875 C-2.5625 -0.125 -2.5625 -0.125 0 0 Z " fill="#3D3D3D" transform="translate(1549.5625,1771.125)"/>
<path d="M0 0 C1.65 0.33 3.3 0.66 5 1 C2.87219421 3.34058637 0.88437779 4.70700306 -2 6 C-2 3 -2 3 0 0 Z " fill="#131313" transform="translate(2070,1712)"/>
<path d="M0 0 C0.33 0.66 0.66 1.32 1 2 C-1.31 4.64 -3.62 7.28 -6 10 C-6.66 9.67 -7.32 9.34 -8 9 C-6.71937515 7.2925002 -5.38232443 5.62626404 -4 4 C-3.34 4 -2.68 4 -2 4 C-1.34 2.68 -0.68 1.36 0 0 Z " fill="#BCBCBC" transform="translate(2130,1664)"/>
<path d="M0 0 C2.31 0.33 4.62 0.66 7 1 C7 1.66 7 2.32 7 3 C7.66 3.33 8.32 3.66 9 4 C5.7 4 2.4 4 -1 4 C-0.67 2.68 -0.34 1.36 0 0 Z " fill="#0D0D0D" transform="translate(1705,1576)"/>
<path d="M0 0 C0 0.66 0 1.32 0 2 C-1.6396875 2.2165625 -1.6396875 2.2165625 -3.3125 2.4375 C-6.93122987 2.88288104 -6.93122987 2.88288104 -10 4 C-12.1875 3.0625 -12.1875 3.0625 -14 2 C-12.4176994 1.66179834 -10.83410625 1.32964061 -9.25 1 C-8.36828125 0.814375 -7.4865625 0.62875 -6.578125 0.4375 C-4 0 -4 0 0 0 Z " fill="#363636" transform="translate(1838,1571)"/>
<path d="M0 0 C2.31 1.98 4.62 3.96 7 6 C5.02 6.99 5.02 6.99 3 8 C2.34 6.68 1.68 5.36 1 4 C0.34 4 -0.32 4 -1 4 C-0.67 2.68 -0.34 1.36 0 0 Z " fill="#2C2C2C" transform="translate(993,1461)"/>
<path d="M0 0 C2.31 0.66 4.62 1.32 7 2 C7 2.66 7 3.32 7 4 C7.66 4.33 8.32 4.66 9 5 C8.34 5 7.68 5 7 5 C6.67 5.66 6.34 6.32 6 7 C4.02 4.69 2.04 2.38 0 0 Z " fill="#222222" transform="translate(656,1453)"/>
<path d="M0 0 C0.99 0.99 1.98 1.98 3 3 C2.34 4.98 1.68 6.96 1 9 C-0.32 8.01 -1.64 7.02 -3 6 C-2 3 -2 3 0 0 Z " fill="#E6E6E6" transform="translate(1308,1173)"/>
<path d="M0 0 C2 1 2 1 3 3 C0.36 4.65 -2.28 6.3 -5 8 C-3.95206337 3.80825346 -3.08236365 2.78407039 0 0 Z " fill="#1A1A1A" transform="translate(1617,1152)"/>
<path d="M0 0 C1.32 0 2.64 0 4 0 C3.67 1.98 3.34 3.96 3 6 C2.34 5.34 1.68 4.68 1 4 C0.34 5.98 -0.32 7.96 -1 10 C-2.31223496 6.06329512 -1.24296256 3.87511856 0 0 Z " fill="#1E1E1E" transform="translate(1162,1120)"/>
<path d="M0 0 C2.475 0.99 2.475 0.99 5 2 C5 2.66 5 3.32 5 4 C5.66 4.33 6.32 4.66 7 5 C1.25 5.125 1.25 5.125 -1 4 C-0.67 2.68 -0.34 1.36 0 0 Z " fill="#222222" transform="translate(1995,960)"/>
<path d="M0 0 C0.33 0.66 0.66 1.32 1 2 C3.01669827 3.13350534 3.01669827 3.13350534 5 4 C4.01 4.495 4.01 4.495 3 5 C3 5.66 3 6.32 3 7 C2.01 6.67 1.02 6.34 0 6 C-0.75 4.0625 -0.75 4.0625 -1 2 C-0.67 1.34 -0.34 0.68 0 0 Z " fill="#121212" transform="translate(1123,1608)"/>
<path d="M0 0 C2.31 0.66 4.62 1.32 7 2 C6.625 3.9375 6.625 3.9375 6 6 C5.01 6.495 5.01 6.495 4 7 C2.02 3.535 2.02 3.535 0 0 Z " fill="#161616" transform="translate(1344,1601)"/>
<path d="M0 0 C3.465 1.485 3.465 1.485 7 3 C6.01 3.495 6.01 3.495 5 4 C4.34 3.67 3.68 3.34 3 3 C2.67 3.99 2.34 4.98 2 6 C1.01 5.67 0.02 5.34 -1 5 C-0.67 3.35 -0.34 1.7 0 0 Z " fill="#252525" transform="translate(1617,1546)"/>
<path d="M0 0 C0 0.99 0 1.98 0 3 C-5.34883721 8 -5.34883721 8 -8 8 C-8 7.34 -8 6.68 -8 6 C-4.53846154 3 -4.53846154 3 -2 3 C-2 2.34 -2 1.68 -2 1 C-1.34 0.67 -0.68 0.34 0 0 Z " fill="#363636" transform="translate(1442,992)"/>
<path d="M0 0 C0.66 0.33 1.32 0.66 2 1 C-0.97 3.475 -0.97 3.475 -4 6 C-4.99 5.34 -5.98 4.68 -7 4 C-1.7265625 0.77734375 -1.7265625 0.77734375 0 0 Z " fill="#3D3D3D" transform="translate(1492,958)"/>
<path d="M0 0 C2.64 0 5.28 0 8 0 C8.66 1.32 9.32 2.64 10 4 C6.7 3.01 3.4 2.02 0 1 C0 0.67 0 0.34 0 0 Z " fill="#3A3A3A" transform="translate(814,836)"/>
<path d="M0 0 C2.64 0.33 5.28 0.66 8 1 C7.01 1.495 7.01 1.495 6 2 C6 2.66 6 3.32 6 4 C3.69 3.34 1.38 2.68 -1 2 C-0.67 1.34 -0.34 0.68 0 0 Z " fill="#121212" transform="translate(908,602)"/>
<path d="M0 0 C4.95 0.99 4.95 0.99 10 2 C7.38058783 3.74627478 5.96175123 4.38722388 3 5 C2.01 3.35 1.02 1.7 0 0 Z " fill="#2F2F2F" transform="translate(878,592)"/>
<path d="M0 0 C2.6875 0.3125 2.6875 0.3125 5 1 C5 1.99 5 2.98 5 4 C2.36 3.67 -0.28 3.34 -3 3 C-1.8125 1.4375 -1.8125 1.4375 0 0 Z " fill="#202020" transform="translate(1587,1784)"/>
<path d="M0 0 C0.66 0.33 1.32 0.66 2 1 C1.67 1.33 1.34 1.66 1 2 C1.66 2.66 2.32 3.32 3 4 C1.02 4.33 -0.96 4.66 -3 5 C-3 4.34 -3 3.68 -3 3 C-3.66 2.67 -4.32 2.34 -5 2 C-2.625 0.9375 -2.625 0.9375 0 0 Z " fill="#1C1C1C" transform="translate(1877,1559)"/>
<path d="M0 0 C0.66 0.33 1.32 0.66 2 1 C0.75 3 0.75 3 -1 5 C-4.11257569 5 -6.10765685 4.82638376 -9 4 C-7.54618103 3.30300448 -6.08677047 2.61766134 -4.625 1.9375 C-3.40683594 1.36322266 -3.40683594 1.36322266 -2.1640625 0.77734375 C-1.44992187 0.52082031 -0.73578125 0.26429687 0 0 Z " fill="#404040" transform="translate(1915,1543)"/>
<path d="M0 0 C1.65 0 3.3 0 5 0 C4.67 1.32 4.34 2.64 4 4 C2.68 4.33 1.36 4.66 0 5 C0 3.35 0 1.7 0 0 Z " fill="#202020" transform="translate(956,1345)"/>
<path d="M0 0 C3 3.75 3 3.75 3 6 C1.35 6 -0.3 6 -2 6 C-2 4.35 -2 2.7 -2 1 C-1.34 0.67 -0.68 0.34 0 0 Z " fill="#313131" transform="translate(2141,1130)"/>
<path d="M0 0 C0 1.32 0 2.64 0 4 C-1.98 4.33 -3.96 4.66 -6 5 C-6 4.34 -6 3.68 -6 3 C-5.34 3 -4.68 3 -4 3 C-4 2.34 -4 1.68 -4 1 C-2 0 -2 0 0 0 Z " fill="#202020" transform="translate(860,1121)"/>
<path d="M0 0 C1.32 0.33 2.64 0.66 4 1 C4.33 2.65 4.66 4.3 5 6 C4.01 5.67 3.02 5.34 2 5 C1.67 5.66 1.34 6.32 1 7 C0.67 4.69 0.34 2.38 0 0 Z " fill="#202020" transform="translate(2131,1113)"/>
<path d="M0 0 C1.70884005 1.62339805 3.37446717 3.29319053 5 5 C5 5.66 5 6.32 5 7 C3 6 1 5 -1 4 C-0.67 2.68 -0.34 1.36 0 0 Z " fill="#222222" transform="translate(2089,1043)"/>
<path d="M0 0 C0.33 0.66 0.66 1.32 1 2 C1.66 2 2.32 2 3 2 C3 2.66 3 3.32 3 4 C2.34 4 1.68 4 1 4 C0.67 5.32 0.34 6.64 0 8 C-1.5625 5.625 -1.5625 5.625 -3 3 C-2.67 2.34 -2.34 1.68 -2 1 C-1.34 1.33 -0.68 1.66 0 2 C0 1.34 0 0.68 0 0 Z " fill="#373737" transform="translate(900,902)"/>
<path d="M0 0 C2.31 0 4.62 0 7 0 C6.67 1.65 6.34 3.3 6 5 C3.98079663 3.69593116 1.98075027 2.36176581 0 1 C0 0.67 0 0.34 0 0 Z " fill="#2B2B2B" transform="translate(1455,1723)"/>
<path d="M0 0 C1.98 0 3.96 0 6 0 C6 0.99 6 1.98 6 3 C6.66 3.33 7.32 3.66 8 4 C6.68 4.33 5.36 4.66 4 5 C2.68 3.35 1.36 1.7 0 0 Z " fill="#1F1F1F" transform="translate(1394,1669)"/>
<path d="M0 0 C0 0.99 0 1.98 0 3 C-1.65 3.66 -3.3 4.32 -5 5 C-5.33 3.68 -5.66 2.36 -6 1 C-3 0 -3 0 0 0 Z " fill="#101010" transform="translate(1024,1312)"/>
<path d="M0 0 C0.33 1.32 0.66 2.64 1 4 C-1.31 5.98 -3.62 7.96 -6 10 C-4.21739173 6.43478346 -2.24007711 3.28544643 0 0 Z " fill="#3F3F3F" transform="translate(890,1088)"/>
<path d="M0 0 C0.66 0.33 1.32 0.66 2 1 C0.26440562 4.057952 -1.38472619 6.63379989 -4 9 C-4.66 8.67 -5.32 8.34 -6 8 C-4.625 6 -4.625 6 -3 4 C-2.34 4 -1.68 4 -1 4 C-0.67 2.68 -0.34 1.36 0 0 Z " fill="#404040" transform="translate(1385,1046)"/>
<path d="M0 0 C2.475 0.99 2.475 0.99 5 2 C4.67 2.66 4.34 3.32 4 4 C1.36 3.67 -1.28 3.34 -4 3 C-4 2.34 -4 1.68 -4 1 C-2.68 1.33 -1.36 1.66 0 2 C0 1.34 0 0.68 0 0 Z " fill="#0F0F0F" transform="translate(972,628)"/>
<path d="M0 0 C1.32 0.66 2.64 1.32 4 2 C3.67 3.65 3.34 5.3 3 7 C1.68 5.68 0.36 4.36 -1 3 C-0.67 2.01 -0.34 1.02 0 0 Z " fill="#101010" transform="translate(812,1627)"/>
<path d="M0 0 C1.04005702 3.38018531 1.08004482 6.4780279 1 10 C0.34 10 -0.32 10 -1 10 C-1.66 7.03 -2.32 4.06 -3 1 C-2.01 1.33 -1.02 1.66 0 2 C0 1.34 0 0.68 0 0 Z " fill="#4C4C4C" transform="translate(1315,1532)"/>
<path d="M0 0 C1.09658936 3.28976808 0.79953138 4.71303767 0 8 C-0.99 7.67 -1.98 7.34 -3 7 C-1.125 1.125 -1.125 1.125 0 0 Z " fill="#101010" transform="translate(1123,1208)"/>
<path d="M0 0 C0.66 1.32 1.32 2.64 2 4 C0.68 4.33 -0.64 4.66 -2 5 C-2.99 3.68 -3.98 2.36 -5 1 C-2 0 -2 0 0 0 Z " fill="#282828" transform="translate(1893,1163)"/>
<path d="M0 0 C0.99 0 1.98 0 3 0 C2.75 2.375 2.75 2.375 2 5 C-0.0625 6.3125 -0.0625 6.3125 -2 7 C-1.42415568 4.61435923 -0.77772405 2.33317216 0 0 Z " fill="#F2F2F2" transform="translate(1323,1137)"/>
<path d="M0 0 C0.33 0.99 0.66 1.98 1 3 C-2.26760563 8.63380282 -2.26760563 8.63380282 -5 10 C-3.84414715 6.08788267 -2.64465038 3.1254959 0 0 Z " fill="#353535" transform="translate(1340,1112)"/>
<path d="M0 0 C0.66 0.99 1.32 1.98 2 3 C1.67 3.66 1.34 4.32 1 5 C0.01 5.33 -0.98 5.66 -2 6 C-2.33 6.66 -2.66 7.32 -3 8 C-3.66 7.67 -4.32 7.34 -5 7 C-3.35 4.69 -1.7 2.38 0 0 Z " fill="#4A4A4A" transform="translate(1365,1072)"/>
<path d="M0 0 C1.31602523 0.61754259 2.62773556 1.24428742 3.9375 1.875 C4.66839844 2.22304688 5.39929688 2.57109375 6.15234375 2.9296875 C8 4 8 4 9 6 C6.36 5.67 3.72 5.34 1 5 C0.67 3.35 0.34 1.7 0 0 Z " fill="#4C4C4C" transform="translate(1007,648)"/>
<path d="M0 0 C0.66 0.66 1.32 1.32 2 2 C-0.8125 2.6875 -0.8125 2.6875 -4 3 C-5.875 1.5625 -5.875 1.5625 -7 0 C-3.85179059 -1.04940314 -3.00659136 -1.066855 0 0 Z " fill="#D0D0D0" transform="translate(1967,1773)"/>
<path d="M0 0 C0 0.99 0 1.98 0 3 C-1.98 3.99 -1.98 3.99 -4 5 C-4.66 4.34 -5.32 3.68 -6 3 C-3.375 0 -3.375 0 0 0 Z " fill="#0F0F0F" transform="translate(2104,1688)"/>
<path d="M0 0 C-1.26839526 0.50615298 -2.53983102 1.00469099 -3.8125 1.5 C-4.87404297 1.91765625 -4.87404297 1.91765625 -5.95703125 2.34375 C-8 3 -8 3 -11 3 C-10.67 2.01 -10.34 1.02 -10 0 C-2.25 -1.125 -2.25 -1.125 0 0 Z " fill="#A8A8A8" transform="translate(1894,1554)"/>
<path d="M0 0 C0.66 0.66 1.32 1.32 2 2 C1.96712417 4.72869407 1.43602229 7.2966618 1 10 C-0.80411967 7.24075815 -1.0127245 6.11027897 -0.625 2.75 C-0.41875 1.8425 -0.2125 0.935 0 0 Z " fill="#E1E1E1" transform="translate(1547,1458)"/>
<path d="M0 0 C0.99 0.33 1.98 0.66 3 1 C2.67 3.31 2.34 5.62 2 8 C1.01 7.34 0.02 6.68 -1 6 C-0.67 4.02 -0.34 2.04 0 0 Z " fill="#E3E3E3" transform="translate(1290,1237)"/>
<path d="M0 0 C0.33 0.66 0.66 1.32 1 2 C-0.91522803 6.03205902 -1.85351878 6.92675939 -6 9 C-4.02 6.03 -2.04 3.06 0 0 Z " fill="#CACACA" transform="translate(1118,1222)"/>
<path d="M0 0 C2.29633824 3.44450737 2.54016485 5.93812283 3 10 C2.01 10 1.02 10 0 10 C0 6.7 0 3.4 0 0 Z " fill="#3F3F3F" transform="translate(2157,1173)"/>
<path d="M0 0 C0.99 0.33 1.98 0.66 3 1 C3 1.66 3 2.32 3 3 C2 4 1 5 0 6 C-1.17574711 8.09989652 -1.17574711 8.09989652 -2 10 C-3 8 -3 8 -2.44140625 6.0546875 C-2.15136719 5.33539062 -1.86132812 4.61609375 -1.5625 3.875 C-1.27503906 3.15054687 -0.98757813 2.42609375 -0.69140625 1.6796875 C-0.46324219 1.12539062 -0.23507812 0.57109375 0 0 Z " fill="#434343" transform="translate(1315,1163)"/>
<path d="M0 0 C0.66 0.33 1.32 0.66 2 1 C0.7260411 3.03833424 -0.61061923 5.03852126 -2 7 C-2.66 7 -3.32 7 -4 7 C-3.6875 4.625 -3.6875 4.625 -3 2 C-2.01 1.34 -1.02 0.68 0 0 Z " fill="#CECECE" transform="translate(1621,1153)"/>
<path d="M0 0 C0.33 0 0.66 0 1 0 C1.92470553 4.71599818 2.22923777 7.67265609 0 12 C-0.33 12 -0.66 12 -1 12 C-1.08159574 7.83861737 -0.98248524 4.0527516 0 0 Z " fill="#B9B9B9" transform="translate(1178,1064)"/>
<path d="M0 0 C0.66 0 1.32 0 2 0 C1.43628586 3.26954202 0.50037734 4.82575883 -2 7 C-2.66 6.67 -3.32 6.34 -4 6 C-2.7260411 3.96166576 -1.38938077 1.96147874 0 0 Z " fill="#484848" transform="translate(1372,1062)"/>
<path d="M0 0 C2.475 0.99 2.475 0.99 5 2 C4.01 2.495 4.01 2.495 3 3 C3 3.66 3 4.32 3 5 C1.68 4.34 0.36 3.68 -1 3 C-0.67 2.01 -0.34 1.02 0 0 Z " fill="#121212" transform="translate(2009,970)"/>
<path d="M0 0 C-1.1875 1.5 -1.1875 1.5 -3 3 C-5.6875 3.1875 -5.6875 3.1875 -8 3 C-8 2.34 -8 1.68 -8 1 C-5.07175348 0.02391783 -3.04386724 -0.08226668 0 0 Z " fill="#1F1F1F" transform="translate(1608,913)"/>
<path d="M0 0 C2.6855594 2.6855594 3.06049974 5.37621328 4 9 C2.68 8.67 1.36 8.34 0 8 C0 5.36 0 2.72 0 0 Z " fill="#393939" transform="translate(1148,812)"/>
</svg>
